<svg width="144" height="48" viewBox="0 0 144 48" fill="none" xmlns="http://www.w3.org/2000/svg">
<rect x="0.6" y="0.6" width="142.8" height="46.8" rx="6.6" fill="black"/>
<rect x="0.6" y="0.6" width="142.8" height="46.8" rx="6.6" stroke="#001F36" stroke-width="1.2"/>
<path d="M29.6457 24.9158C29.6603 23.8119 29.9606 22.7296 30.5188 21.7695C31.0769 20.8094 31.8748 20.0027 32.8381 19.4245C32.2261 18.5712 31.4188 17.869 30.4803 17.3737C29.5417 16.8783 28.4978 16.6034 27.4314 16.5708C25.1566 16.3377 22.9512 17.8998 21.792 17.8998C20.6104 17.8998 18.8256 16.594 16.9037 16.6326C15.6606 16.6718 14.449 17.0247 13.3871 17.657C12.3252 18.2892 11.4492 19.1793 10.8444 20.2403C8.22453 24.6688 10.1787 31.1772 12.6884 34.7569C13.944 36.5097 15.4115 38.4677 17.3317 38.3983C19.2107 38.3222 19.9124 37.2285 22.1805 37.2285C24.4276 37.2285 25.086 38.3983 27.0452 38.3541C29.0614 38.3222 30.3318 36.5935 31.5434 34.824C32.4455 33.5751 33.1398 32.1947 33.6003 30.734C32.4289 30.2503 31.4293 29.4407 30.726 28.406C30.0228 27.3714 29.6471 26.1575 29.6457 24.9158Z" fill="white"/>
<path d="M25.9453 14.2164C27.0447 12.928 27.5863 11.2719 27.4551 9.59985C25.7756 9.77208 24.2241 10.5558 23.1099 11.7948C22.5652 12.4001 22.1479 13.1042 21.8821 13.8671C21.6162 14.6299 21.507 15.4364 21.5606 16.2404C22.4007 16.2489 23.2317 16.0711 23.9912 15.7205C24.7508 15.3699 25.4189 14.8556 25.9453 14.2164Z" fill="white"/>
<path d="M44.1491 12.3018H46.6329C48.7792 12.3018 49.8233 13.5779 49.8233 15.893C49.8233 18.208 48.7686 19.5 46.6329 19.5H44.1491V12.3018ZM45.3462 13.309V18.4928H46.5011C47.9249 18.4928 48.5946 17.6332 48.5946 15.9088C48.5946 14.1738 47.9196 13.309 46.5011 13.309H45.3462ZM53.6097 13.8311C55.0651 13.8311 56.0829 14.775 56.0829 16.3412V17.0637C56.0829 18.6826 55.0651 19.5949 53.6097 19.5949C52.1331 19.5949 51.1259 18.6932 51.1259 17.0689V16.3465C51.1259 14.8225 52.1489 13.8311 53.6097 13.8311ZM53.6149 14.775C52.7817 14.775 52.3071 15.4711 52.3071 16.4045V17.0268C52.3071 17.9602 52.7501 18.651 53.6149 18.651C54.4692 18.651 54.9069 17.9654 54.9069 17.0268V16.4045C54.9069 15.4711 54.4481 14.775 53.6149 14.775ZM64.6786 13.926L63.2126 19.5H62.0208L60.8554 15.3867H60.8237L59.6794 19.5H58.4823L56.953 13.926H58.2134L59.1099 18.1764H59.1626L60.2858 13.926H61.388L62.5429 18.1764H62.5956L63.5079 13.926H64.6786ZM65.8388 19.5V13.926H66.9884V14.9279H67.0464C67.1888 14.4902 67.5948 13.8416 68.7233 13.8416C69.8466 13.8416 70.6007 14.4639 70.6007 15.7348V19.5H69.43V16.0775C69.43 15.2285 68.987 14.8383 68.3278 14.8383C67.463 14.8383 67.0095 15.5027 67.0095 16.4045V19.5H65.8388ZM72.3725 19.5V11.9221H73.5432V19.5H72.3725ZM77.5616 13.8311C79.0171 13.8311 80.0348 14.775 80.0348 16.3412V17.0637C80.0348 18.6826 79.0171 19.5949 77.5616 19.5949C76.085 19.5949 75.0778 18.6932 75.0778 17.0689V16.3465C75.0778 14.8225 76.1009 13.8311 77.5616 13.8311ZM77.5669 14.775C76.7337 14.775 76.2591 15.4711 76.2591 16.4045V17.0268C76.2591 17.9602 76.702 18.651 77.5669 18.651C78.4212 18.651 78.8589 17.9654 78.8589 17.0268V16.4045C78.8589 15.4711 78.4001 14.775 77.5669 14.775ZM83.0671 19.5844C81.986 19.5844 81.2425 18.9199 81.2425 17.8811C81.2425 16.8949 81.928 16.2305 83.2147 16.2305H84.6227V15.7084C84.6227 15.0703 84.2167 14.7697 83.5733 14.7697C82.9405 14.7697 82.6557 15.0334 82.5661 15.4025H81.4534C81.522 14.4691 82.2233 13.8416 83.6102 13.8416C84.802 13.8416 85.7882 14.3373 85.7882 15.7242V19.5H84.6755V18.7775H84.6227C84.3749 19.2047 83.8897 19.5844 83.0671 19.5844ZM83.4309 18.6773C84.0954 18.6773 84.6227 18.2238 84.6227 17.6174V17.0162H83.3993C82.719 17.0162 82.4184 17.359 82.4184 17.823C82.4184 18.4031 82.9036 18.6773 83.4309 18.6773ZM89.3952 13.8521C90.1809 13.8521 90.7821 14.2002 90.9983 14.7645H91.0563V11.9221H92.227V19.5H91.088V18.6088H91.03C90.8612 19.173 90.1915 19.5738 89.3794 19.5738C88.0979 19.5738 87.2647 18.6615 87.2647 17.1902V16.2357C87.2647 14.7645 88.1138 13.8521 89.3952 13.8521ZM89.7222 14.8119C88.9417 14.8119 88.4565 15.392 88.4565 16.4045V17.0162C88.4565 18.034 88.947 18.6141 89.7485 18.6141C90.5395 18.6141 91.0563 18.0393 91.0563 17.09V16.2463C91.0563 15.3867 90.4921 14.8119 89.7222 14.8119ZM98.6554 13.8311C100.111 13.8311 101.129 14.775 101.129 16.3412V17.0637C101.129 18.6826 100.111 19.5949 98.6554 19.5949C97.1788 19.5949 96.1716 18.6932 96.1716 17.0689V16.3465C96.1716 14.8225 97.1946 13.8311 98.6554 13.8311ZM98.6606 14.775C97.8274 14.775 97.3528 15.4711 97.3528 16.4045V17.0268C97.3528 17.9602 97.7958 18.651 98.6606 18.651C99.5149 18.651 99.9526 17.9654 99.9526 17.0268V16.4045C99.9526 15.4711 99.4938 14.775 98.6606 14.775ZM102.637 19.5V13.926H103.786V14.9279H103.844C103.987 14.4902 104.393 13.8416 105.521 13.8416C106.645 13.8416 107.399 14.4639 107.399 15.7348V19.5H106.228V16.0775C106.228 15.2285 105.785 14.8383 105.126 14.8383C104.261 14.8383 103.808 15.5027 103.808 16.4045V19.5H102.637ZM111.929 13.9629V12.5707H113.073V13.9629H114.323V14.8805H113.073V17.8389C113.073 18.4453 113.3 18.6141 113.927 18.6141C114.085 18.6141 114.296 18.6035 114.386 18.593V19.4895C114.291 19.5053 113.901 19.5369 113.637 19.5369C112.282 19.5369 111.913 19.0518 111.913 17.9338V14.8805H111.064V13.9629H111.929ZM115.799 19.5V11.9221H116.965V14.9279H117.023C117.144 14.5324 117.598 13.8416 118.716 13.8416C119.802 13.8416 120.577 14.4691 120.577 15.74V19.5H119.412V16.0828C119.412 15.2338 118.942 14.8383 118.278 14.8383C117.439 14.8383 116.965 15.4975 116.965 16.4045V19.5H115.799ZM124.506 19.5949C122.987 19.5949 122.043 18.6615 122.043 17.09V16.3359C122.043 14.7539 123.077 13.8311 124.437 13.8311C125.835 13.8311 126.821 14.8014 126.821 16.3359V16.9898H123.203V17.2641C123.203 18.0656 123.678 18.6563 124.5 18.6563C125.112 18.6563 125.534 18.3662 125.613 18.0182H126.758C126.689 18.6615 126.009 19.5949 124.506 19.5949ZM123.203 16.2252H125.676V16.1514C125.676 15.3129 125.186 14.7539 124.442 14.7539C123.699 14.7539 123.203 15.3129 123.203 16.1514V16.2252Z" fill="white"/>
<path d="M45.8472 37.5H43.4108L48.3679 23.1035H51.0468L55.9932 37.5H53.462L52.1858 33.5133H47.1339L45.8472 37.5ZM49.7179 25.5926H49.6229L47.6718 31.6781H51.6479L49.7179 25.5926ZM62.7171 37.6582C61.2722 37.6582 60.1753 36.9727 59.5847 35.9496H59.5003V41.202H57.1589V26.352H59.4371V27.9867H59.5214C60.1332 26.9215 61.2722 26.2043 62.7699 26.2043C65.2695 26.2043 67.0519 28.0922 67.0519 31.425V32.4164C67.0519 35.7281 65.2906 37.6582 62.7171 37.6582ZM62.1792 35.7281C63.6664 35.7281 64.6789 34.5363 64.6789 32.2898V31.5094C64.6789 29.3473 63.7296 28.1133 62.1371 28.1133C60.5023 28.1133 59.4792 29.4422 59.4792 31.4988V32.2898C59.4792 34.3992 60.5128 35.7281 62.1792 35.7281ZM74.6195 37.6582C73.1746 37.6582 72.0777 36.9727 71.4871 35.9496H71.4027V41.202H69.0613V26.352H71.3395V27.9867H71.4238C72.0356 26.9215 73.1746 26.2043 74.6723 26.2043C77.1719 26.2043 78.9543 28.0922 78.9543 31.425V32.4164C78.9543 35.7281 77.193 37.6582 74.6195 37.6582ZM74.0817 35.7281C75.5688 35.7281 76.5813 34.5363 76.5813 32.2898V31.5094C76.5813 29.3473 75.632 28.1133 74.0395 28.1133C72.4047 28.1133 71.3817 29.4422 71.3817 31.4988V32.2898C71.3817 34.3992 72.4152 35.7281 74.0817 35.7281ZM83.8064 33.5027H86.1478C86.2533 34.7473 87.3501 35.8125 89.3857 35.8125C91.2525 35.8125 92.3599 34.9371 92.3599 33.5766C92.3599 32.4797 91.6216 31.8891 90.0818 31.5199L87.7193 30.9293C85.863 30.4969 84.1966 29.3895 84.1966 27.048C84.1966 24.2953 86.6013 22.7871 89.3962 22.7871C92.1912 22.7871 94.522 24.2953 94.5747 26.9848H92.2755C92.1701 25.7613 91.2314 24.7488 89.3646 24.7488C87.7193 24.7488 86.6013 25.5293 86.6013 26.8688C86.6013 27.8074 87.2552 28.4824 88.5947 28.7883L90.9466 29.3684C93.1087 29.8957 94.754 30.9188 94.754 33.3656C94.754 36.1922 92.4654 37.7848 89.2064 37.7848C85.1986 37.7848 83.8591 35.4434 83.8064 33.5027ZM97.6072 26.352V23.6414H99.9065V26.352H102.079V28.2293H99.9065V34.1777C99.9065 35.3906 100.36 35.7281 101.615 35.7281C101.815 35.7281 102.005 35.7281 102.142 35.707V37.5C101.953 37.5316 101.51 37.5738 101.035 37.5738C98.3244 37.5738 97.5756 36.6035 97.5756 34.3676V28.2293H96.0357V26.352H97.6072ZM108.402 26.1621C111.608 26.1621 113.349 28.4191 113.349 31.4566V32.3531C113.349 35.4961 111.619 37.6898 108.402 37.6898C105.185 37.6898 103.435 35.4961 103.435 32.3531V31.4566C103.435 28.4297 105.196 26.1621 108.402 26.1621ZM108.402 28.0395C106.662 28.0395 105.797 29.4633 105.797 31.4883V32.3426C105.797 34.3359 106.651 35.802 108.402 35.802C110.153 35.802 110.997 34.3465 110.997 32.3426V31.4883C110.997 29.4527 110.142 28.0395 108.402 28.0395ZM115.326 37.5V26.352H117.668V27.818H117.752C118.037 27.1219 118.87 26.1938 120.421 26.1938C120.726 26.1938 120.99 26.2148 121.212 26.257V28.3242C121.011 28.2715 120.6 28.2398 120.21 28.2398C118.332 28.2398 117.7 29.4 117.7 30.8977V37.5H115.326ZM126.891 37.6898C123.907 37.6898 122.008 35.7176 122.008 32.4164V31.2879C122.008 28.1766 123.864 26.1621 126.796 26.1621C129.771 26.1621 131.564 28.2504 131.564 31.3934V32.4586H124.318V32.7223C124.318 34.5996 125.33 35.8441 126.923 35.8441C128.115 35.8441 128.927 35.2535 129.212 34.2938H131.437C131.1 36.0973 129.644 37.6898 126.891 37.6898ZM124.318 30.8238H129.275V30.8027C129.275 29.2207 128.294 27.9762 126.807 27.9762C125.299 27.9762 124.318 29.2207 124.318 30.8027V30.8238Z" fill="white"/>
</svg>
