<svg width="75" height="96" viewBox="0 0 75 96" fill="none" xmlns="http://www.w3.org/2000/svg">
<path d="M24.2 69.04C20.9467 69.04 17.9867 68.2933 15.32 66.8C12.6533 65.28 10.3467 63.1867 8.4 60.52C6.48 57.8533 5 54.7733 3.96 51.28C2.92 47.76 2.4 44 2.4 40C2.4 36 2.92 32.2533 3.96 28.76C5 25.24 6.48 22.1467 8.4 19.48C10.3467 16.8133 12.6533 14.7333 15.32 13.24C17.9867 11.72 20.9467 10.96 24.2 10.96C27.4533 10.96 30.4133 11.72 33.08 13.24C35.7467 14.7333 38.0267 16.8133 39.92 19.48C41.84 22.1467 43.32 25.24 44.36 28.76C45.4267 32.2533 45.96 36 45.96 40C45.96 44 45.4267 47.76 44.36 51.28C43.32 54.7733 41.84 57.8533 39.92 60.52C38.0267 63.1867 35.7467 65.28 33.08 66.8C30.4133 68.2933 27.4533 69.04 24.2 69.04ZM24.2 59.28C27.0533 59.28 29.4133 58.3733 31.28 56.56C33.1467 54.7467 34.5333 52.3733 35.44 49.44C36.3467 46.5067 36.8 43.36 36.8 40C36.8 36.4533 36.32 33.2267 35.36 30.32C34.4 27.3867 32.9867 25.0533 31.12 23.32C29.2533 21.5867 26.9467 20.72 24.2 20.72C22.04 20.72 20.16 21.2533 18.56 22.32C16.9867 23.36 15.68 24.7867 14.64 26.6C13.6 28.4133 12.8267 30.48 12.32 32.8C11.8133 35.0933 11.56 37.4933 11.56 40C11.56 43.3333 12.0133 46.48 12.92 49.44C13.8533 52.3733 15.2533 54.7467 17.12 56.56C19.0133 58.3733 21.3733 59.28 24.2 59.28ZM58.5994 68V21.76H51.5594L54.1994 12H68.3594V68H58.5994Z" fill="#F3F3F3"/>
<path d="M53.136 74.514L50.274 64.478C49.6 62.136 47.426 60.5 44.988 60.5H41.998C41.17 60.5 40.498 61.172 40.498 62C40.498 62.828 41.17 63.5 41.998 63.5H44.988C46.096 63.5 47.084 64.244 47.39 65.304L49.442 72.5H44C42.07 72.5 40.5 74.07 40.5 76C40.5 77.378 39.378 78.5 38 78.5H30C28.622 78.5 27.5 77.378 27.5 76C27.5 74.07 25.93 72.5 24 72.5H18.558L20.608 65.308C20.914 64.242 21.902 63.5 23.01 63.5H26C26.828 63.5 27.5 62.828 27.5 62C27.5 61.172 26.828 60.5 26 60.5H23.01C20.572 60.5 18.398 62.136 17.724 64.482L14.864 74.514C14.622 75.362 14.5 76.238 14.5 77.118V86C14.5 89.034 16.966 91.5 20 91.5H48C51.034 91.5 53.5 89.034 53.5 86V77.118C53.5 76.238 53.378 75.362 53.136 74.514ZM50.5 86C50.5 87.378 49.378 88.5 48 88.5H20C18.622 88.5 17.5 87.378 17.5 86V77.118C17.5 76.616 17.572 76.118 17.686 75.63C17.772 75.556 17.878 75.5 18 75.5H24C24.276 75.5 24.5 75.724 24.5 76C24.5 79.034 26.966 81.5 30 81.5H38C41.034 81.5 43.5 79.034 43.5 76C43.5 75.724 43.724 75.5 44 75.5H50C50.122 75.5 50.226 75.556 50.314 75.63C50.428 76.118 50.5 76.616 50.5 77.118V86Z" fill="#01081B"/>
<path d="M39.052 66.872C38.462 66.288 37.51 66.298 36.93 66.888L35.498 68.342V54C35.498 53.172 34.826 52.5 33.998 52.5C33.17 52.5 32.498 53.172 32.498 54V68.398L31.054 66.966C30.468 66.382 29.516 66.384 28.932 66.974C28.348 67.562 28.352 68.512 28.94 69.096L32.94 73.066C33.222 73.346 33.602 73.502 33.996 73.502H34.004C34.404 73.502 34.786 73.338 35.064 73.054L39.064 68.994C39.646 68.404 39.638 67.454 39.048 66.872H39.052Z" fill="#2E68FD"/>
</svg>
