<svg width="144" height="48" viewBox="0 0 144 48" fill="none" xmlns="http://www.w3.org/2000/svg">
<rect x="0.6" y="0.6" width="142.8" height="46.8" rx="6.6" fill="black"/>
<rect x="0.6" y="0.6" width="142.8" height="46.8" rx="6.6" stroke="#001F36" stroke-width="1.2"/>
<path d="M21.3659 23.3542L9.70764 36.0073C9.70874 36.0095 9.70874 36.0129 9.70983 36.0151C10.0679 37.389 11.2943 38.4001 12.7506 38.4001C13.3331 38.4001 13.8795 38.2389 14.3482 37.9567L14.3854 37.9343L27.5076 30.1913L21.3659 23.3542Z" fill="#EA4335"/>
<path d="M33.1593 21.1993L33.1484 21.1914L27.4829 17.8333L21.1003 23.6414L27.5059 30.1897L33.1407 26.8652C34.1284 26.3187 34.7996 25.2539 34.7996 24.0266C34.7996 22.8061 34.1382 21.7468 33.1593 21.1993Z" fill="#FBBC04"/>
<path d="M9.70693 11.9919C9.63685 12.2562 9.59962 12.5339 9.59962 12.8206V35.1796C9.59962 35.4662 9.63685 35.7439 9.70803 36.0071L21.766 23.6776L9.70693 11.9919Z" fill="#4285F4"/>
<path d="M21.4519 24L27.4852 17.8313L14.3783 10.0603C13.902 9.76806 13.3458 9.6001 12.7512 9.6001C11.2949 9.6001 10.0663 10.6135 9.70823 11.9885C9.70823 11.9896 9.70714 11.9908 9.70714 11.9919L21.4519 24Z" fill="#34A853"/>
<path d="M52.3321 13.052C52.3321 14.252 51.9761 15.208 51.2641 15.92C50.4641 16.768 49.4121 17.192 48.1081 17.192C46.8601 17.192 45.8041 16.76 44.9401 15.896C44.0761 15.032 43.6441 13.968 43.6441 12.704C43.6441 11.44 44.0761 10.376 44.9401 9.512C45.8041 8.648 46.8601 8.216 48.1081 8.216C48.7401 8.216 49.3361 8.328 49.8961 8.552C50.4561 8.776 50.9161 9.092 51.2761 9.5L50.4841 10.292C50.2201 9.972 49.8761 9.724 49.4521 9.548C49.0361 9.364 48.5881 9.272 48.1081 9.272C47.1721 9.272 46.3801 9.596 45.7321 10.244C45.0921 10.9 44.7721 11.72 44.7721 12.704C44.7721 13.688 45.0921 14.508 45.7321 15.164C46.3801 15.812 47.1721 16.136 48.1081 16.136C48.9641 16.136 49.6761 15.896 50.2441 15.416C50.8121 14.936 51.1401 14.276 51.2281 13.436H48.1081V12.404H52.2721C52.3121 12.628 52.3321 12.844 52.3321 13.052ZM58.6894 8.408V9.464H54.7774V12.188H58.3054V13.22H54.7774V15.944H58.6894V17H53.6734V8.408H58.6894ZM63.1054 9.464V17H62.0014V9.464H59.6014V8.408H65.5054V9.464H63.1054ZM70.3985 17H69.2945V8.408H70.3985V17ZM75.0585 9.464V17H73.9545V9.464H71.5545V8.408H77.4585V9.464H75.0585ZM89.4253 12.704C89.4253 13.976 89.0013 15.04 88.1533 15.896C87.2973 16.76 86.2493 17.192 85.0093 17.192C83.7613 17.192 82.7133 16.76 81.8653 15.896C81.0173 15.04 80.5933 13.976 80.5933 12.704C80.5933 11.432 81.0173 10.368 81.8653 9.512C82.7133 8.648 83.7613 8.216 85.0093 8.216C86.2573 8.216 87.3053 8.652 88.1533 9.524C89.0013 10.38 89.4253 11.44 89.4253 12.704ZM81.7213 12.704C81.7213 13.696 82.0333 14.516 82.6573 15.164C83.2893 15.812 84.0733 16.136 85.0093 16.136C85.9453 16.136 86.7253 15.812 87.3493 15.164C87.9813 14.524 88.2973 13.704 88.2973 12.704C88.2973 11.704 87.9813 10.884 87.3493 10.244C86.7253 9.596 85.9453 9.272 85.0093 9.272C84.0733 9.272 83.2893 9.596 82.6573 10.244C82.0333 10.892 81.7213 11.712 81.7213 12.704ZM91.8321 17H90.7281V8.408H92.0721L96.2481 15.092H96.2961L96.2481 13.436V8.408H97.3521V17H96.2001L91.8321 9.992H91.7841L91.8321 11.648V17Z" fill="white"/>
<path d="M112.222 35.2917H114.176V22.0779H112.222V35.2917ZM129.827 26.8376L127.586 32.5667H127.519L125.194 26.8376H123.088L126.575 34.8446L124.588 39.2988H126.626L132 26.8376H129.827ZM118.742 33.7907C118.101 33.7907 117.209 33.4683 117.209 32.6682C117.209 31.6492 118.32 31.2581 119.281 31.2581C120.14 31.2581 120.545 31.4452 121.067 31.6999C120.915 32.924 119.87 33.7907 118.742 33.7907ZM118.978 26.5491C117.563 26.5491 116.096 27.178 115.491 28.5722L117.226 29.3026C117.596 28.5722 118.287 28.3333 119.011 28.3333C120.022 28.3333 121.05 28.9453 121.067 30.0341V30.1694C120.713 29.9654 119.955 29.6599 119.028 29.6599C117.159 29.6599 115.254 30.6968 115.254 32.6343C115.254 34.4027 116.788 35.5422 118.506 35.5422C119.82 35.5422 120.545 34.9471 121 34.2495H121.067V35.2695H122.953V30.2032C122.953 27.8577 121.219 26.5491 118.978 26.5491ZM106.899 28.4464H104.119V23.9171H106.899C108.36 23.9171 109.189 25.1379 109.189 26.1812C109.189 27.2055 108.36 28.4464 106.899 28.4464ZM106.848 22.0779H102.165V35.2917H104.119V30.2856H106.848C109.014 30.2856 111.144 28.7022 111.144 26.1812C111.144 23.6602 109.014 22.0779 106.848 22.0779ZM81.31 33.7928C79.9599 33.7928 78.8296 32.6523 78.8296 31.0858C78.8296 29.5024 79.9599 28.3439 81.31 28.3439C82.6435 28.3439 83.6888 29.5024 83.6888 31.0858C83.6888 32.6523 82.6435 33.7928 81.31 33.7928ZM83.5548 27.5775H83.4867C83.0478 27.0501 82.2046 26.5734 81.1414 26.5734C78.9134 26.5734 76.8719 28.5479 76.8719 31.0858C76.8719 33.6057 78.9134 35.5644 81.1414 35.5644C82.2046 35.5644 83.0478 35.0877 83.4867 34.5423H83.5548V35.1902C83.5548 36.91 82.6435 37.8296 81.1749 37.8296C79.9766 37.8296 79.234 36.9607 78.9302 36.2282L77.226 36.9438C77.7151 38.1361 79.015 39.6001 81.1749 39.6001C83.4699 39.6001 85.4109 38.2376 85.4109 34.9175V26.845H83.5548V27.5775ZM86.761 35.2917H88.7188V22.0768H86.761V35.2917ZM91.6035 30.9325C91.5532 29.1958 92.9369 28.3101 93.932 28.3101C94.7092 28.3101 95.367 28.7012 95.586 29.2635L91.6035 30.9325ZM97.6788 29.4337C97.308 28.4295 96.1767 26.5734 93.865 26.5734C91.57 26.5734 89.6636 28.3946 89.6636 31.0689C89.6636 33.5888 91.5532 35.5644 94.0839 35.5644C96.1264 35.5644 97.308 34.3044 97.7972 33.5719L96.2783 32.5498C95.7724 33.2992 95.08 33.7928 94.0839 33.7928C93.0888 33.7928 92.3797 33.333 91.924 32.4314L97.881 29.9442L97.6788 29.4337ZM50.2202 27.9528V29.8597H54.7421C54.607 30.9325 54.2529 31.7158 53.7135 32.2601C53.0546 32.925 52.025 33.6575 50.2202 33.6575C47.435 33.6575 45.2583 31.3923 45.2583 28.5828C45.2583 25.7722 47.435 23.508 50.2202 23.508C51.7223 23.508 52.819 24.1042 53.6286 24.8705L54.9621 23.5249C53.8308 22.4351 52.3298 21.6001 50.2202 21.6001C46.4064 21.6001 43.2001 24.7342 43.2001 28.5828C43.2001 32.4314 46.4064 35.5644 50.2202 35.5644C52.2785 35.5644 53.8308 34.8826 55.0459 33.6057C56.2955 32.3458 56.6831 30.5753 56.6831 29.1441C56.6831 28.7012 56.6495 28.2931 56.5815 27.9528H50.2202ZM61.8251 33.7928C60.4749 33.7928 59.3101 32.6692 59.3101 31.0689C59.3101 29.4506 60.4749 28.3439 61.8251 28.3439C63.1742 28.3439 64.339 29.4506 64.339 31.0689C64.339 32.6692 63.1742 33.7928 61.8251 33.7928ZM61.8251 26.5734C59.3604 26.5734 57.3524 28.4633 57.3524 31.0689C57.3524 33.6575 59.3604 35.5644 61.8251 35.5644C64.2887 35.5644 66.2967 33.6575 66.2967 31.0689C66.2967 28.4633 64.2887 26.5734 61.8251 26.5734ZM71.5801 33.7928C70.2299 33.7928 69.0652 32.6692 69.0652 31.0689C69.0652 29.4506 70.2299 28.3439 71.5801 28.3439C72.9303 28.3439 74.094 29.4506 74.094 31.0689C74.094 32.6692 72.9303 33.7928 71.5801 33.7928ZM71.5801 26.5734C69.1165 26.5734 67.1085 28.4633 67.1085 31.0689C67.1085 33.6575 69.1165 35.5644 71.5801 35.5644C74.0438 35.5644 76.0518 33.6575 76.0518 31.0689C76.0518 28.4633 74.0438 26.5734 71.5801 26.5734Z" fill="white"/>
</svg>
