<svg width="61" height="60" viewBox="0 0 61 60" fill="none" xmlns="http://www.w3.org/2000/svg">
<path d="M38.375 17.5V12.5C38.375 10.7775 36.77 9.375 34.8 9.375H15.6975C13.7275 9.375 12.1225 10.7775 12.1225 12.5V47.5C12.1225 49.2225 13.7275 50.625 15.6975 50.625H34.8C36.77 50.625 38.375 49.2225 38.375 47.5V37.5C38.375 36.465 39.215 35.625 40.25 35.625C41.285 35.625 42.125 36.465 42.125 37.5V47.5C42.125 51.2925 38.84 54.375 34.8 54.375H15.6975C11.66 54.375 8.3725 51.2925 8.3725 47.5V12.5C8.3725 8.7075 11.6575 5.625 15.6975 5.625H34.8C38.8375 5.625 42.125 8.7075 42.125 12.5V17.5C42.125 18.535 41.285 19.375 40.25 19.375C39.215 19.375 38.375 18.535 38.375 17.5Z" fill="#01081B"/>
<path d="M45.25 15.625H27.75C23.9575 15.625 20.875 18.7075 20.875 22.5V32.5C20.875 36.2925 23.9575 39.375 27.75 39.375H45.25C49.0425 39.375 52.125 36.2925 52.125 32.5V22.5C52.125 18.7075 49.0425 15.625 45.25 15.625ZM27.75 19.375H45.25C46.9725 19.375 48.375 20.7775 48.375 22.5V23.125H24.625V22.5C24.625 20.7775 26.0275 19.375 27.75 19.375ZM45.25 35.625H27.75C26.0275 35.625 24.625 34.2225 24.625 32.5V26.875H48.375V32.5C48.375 34.2225 46.9725 35.625 45.25 35.625Z" fill="#2E68FD"/>
</svg>
