<svg width="95" height="96" viewBox="0 0 95 96" fill="none" xmlns="http://www.w3.org/2000/svg">
<path d="M24.2 69.04C20.9467 69.04 17.9867 68.2933 15.32 66.8C12.6533 65.28 10.3467 63.1867 8.4 60.52C6.48 57.8533 5 54.7733 3.96 51.28C2.92 47.76 2.4 44 2.4 40C2.4 36 2.92 32.2533 3.96 28.76C5 25.24 6.48 22.1467 8.4 19.48C10.3467 16.8133 12.6533 14.7333 15.32 13.24C17.9867 11.72 20.9467 10.96 24.2 10.96C27.4533 10.96 30.4133 11.72 33.08 13.24C35.7467 14.7333 38.0267 16.8133 39.92 19.48C41.84 22.1467 43.32 25.24 44.36 28.76C45.4267 32.2533 45.96 36 45.96 40C45.96 44 45.4267 47.76 44.36 51.28C43.32 54.7733 41.84 57.8533 39.92 60.52C38.0267 63.1867 35.7467 65.28 33.08 66.8C30.4133 68.2933 27.4533 69.04 24.2 69.04ZM24.2 59.28C27.0533 59.28 29.4133 58.3733 31.28 56.56C33.1467 54.7467 34.5333 52.3733 35.44 49.44C36.3467 46.5067 36.8 43.36 36.8 40C36.8 36.4533 36.32 33.2267 35.36 30.32C34.4 27.3867 32.9867 25.0533 31.12 23.32C29.2533 21.5867 26.9467 20.72 24.2 20.72C22.04 20.72 20.16 21.2533 18.56 22.32C16.9867 23.36 15.68 24.7867 14.64 26.6C13.6 28.4133 12.8267 30.48 12.32 32.8C11.8133 35.0933 11.56 37.4933 11.56 40C11.56 43.3333 12.0133 46.48 12.92 49.44C13.8533 52.3733 15.2533 54.7467 17.12 56.56C19.0133 58.3733 21.3733 59.28 24.2 59.28ZM51.5594 68V59.28C53.2927 57.9733 55.346 56.36 57.7194 54.44C60.0927 52.4933 62.5327 50.4 65.0394 48.16C67.546 45.8933 69.866 43.6267 71.9994 41.36C74.1327 39.0933 75.866 36.9333 77.1994 34.88C78.5594 32.8267 79.2394 31.0667 79.2394 29.6C79.2394 27.9733 78.8394 26.4933 78.0394 25.16C77.2394 23.8 76.1727 22.72 74.8394 21.92C73.5327 21.12 72.066 20.72 70.4394 20.72C68.8127 20.72 67.3327 21.12 65.9994 21.92C64.666 22.72 63.5994 23.8 62.7994 25.16C61.9994 26.4933 61.5994 27.9733 61.5994 29.6H51.8394C51.8394 26.08 52.6927 22.92 54.3994 20.12C56.106 17.2933 58.3594 15.0667 61.1594 13.44C63.986 11.7867 67.0794 10.96 70.4394 10.96C73.8527 10.96 76.9594 11.8 79.7594 13.48C82.5594 15.1333 84.7994 17.3733 86.4794 20.2C88.1594 23.0267 88.9994 26.16 88.9994 29.6C88.9994 31.4133 88.666 33.24 87.9994 35.08C87.3327 36.92 86.3994 38.7733 85.1994 40.64C83.9994 42.5067 82.586 44.4 80.9594 46.32C79.3327 48.2133 77.5327 50.16 75.5594 52.16C73.6127 54.1333 71.5594 56.16 69.3994 58.24H89.2794V68H51.5594Z" fill="#F3F3F3"/>
<path d="M48 56.5H20C16.966 56.5 14.5 58.966 14.5 62V82C14.5 85.034 16.966 87.5 20 87.5H48C51.034 87.5 53.5 85.034 53.5 82V62C53.5 58.966 51.034 56.5 48 56.5ZM20 59.5H48C49.378 59.5 50.5 60.622 50.5 62V66.5H17.5V62C17.5 60.622 18.622 59.5 20 59.5ZM48 84.5H20C18.622 84.5 17.5 83.378 17.5 82V69.5H50.5V82C50.5 83.378 49.378 84.5 48 84.5Z" fill="#01081B"/>
<path d="M27.5 80C27.5 80.828 26.828 81.5 26 81.5H22C21.172 81.5 20.5 80.828 20.5 80C20.5 79.172 21.172 78.5 22 78.5H26C26.828 78.5 27.5 79.172 27.5 80ZM36 78.5H32C31.172 78.5 30.5 79.172 30.5 80C30.5 80.828 31.172 81.5 32 81.5H36C36.828 81.5 37.5 80.828 37.5 80C37.5 79.172 36.828 78.5 36 78.5Z" fill="#2E68FD"/>
</svg>
