<svg width="183" height="40" viewBox="0 0 183 40" fill="none" xmlns="http://www.w3.org/2000/svg">
<path d="M53.8111 26.6949C53.8111 27.568 53.6309 28.239 53.2708 28.7077C52.9201 29.1765 52.3338 29.4109 51.5121 29.4109C50.7364 29.4109 50.1871 29.1765 49.8639 28.7077C49.55 28.239 49.3931 27.568 49.3931 26.6949V12.1223C49.3931 11.2491 49.55 10.5781 49.8639 10.1094C50.1871 9.64063 50.7364 9.40625 51.5121 9.40625C52.3338 9.40625 52.9201 9.64063 53.2708 10.1094C53.6309 10.5781 53.8111 11.2491 53.8111 12.1223V26.6949Z" fill="#A0A1A3"/>
<path d="M55.1523 22.4642C55.1523 21.4898 55.3093 20.5708 55.6233 19.7068C55.9464 18.8336 56.4265 18.0708 57.0636 17.4182C57.7099 16.7656 58.5132 16.2463 59.4734 15.8603C60.4429 15.4742 61.5785 15.2812 62.8804 15.2812C64.1268 15.2812 65.2302 15.4604 66.1904 15.8189C67.1506 16.1774 67.9585 16.6783 68.614 17.3217C69.2695 17.9558 69.7681 18.7141 70.1098 19.5964C70.4513 20.4696 70.6222 21.4255 70.6222 22.4642C70.6222 23.4292 70.4606 24.3437 70.1374 25.2077C69.8143 26.0624 69.3296 26.8162 68.6832 27.4688C68.037 28.1121 67.2291 28.6268 66.2597 29.0129C65.2901 29.3897 64.1637 29.5781 62.8804 29.5781C61.6155 29.5781 60.4983 29.3989 59.5287 29.0404C58.5685 28.6728 57.7607 28.1718 57.1052 27.5376C56.4588 26.8943 55.9695 26.1407 55.6371 25.2767C55.3139 24.4035 55.1523 23.466 55.1523 22.4642ZM59.7643 22.4642C59.7643 23.0708 59.8196 23.6498 59.9304 24.2012C60.0412 24.7435 60.2167 25.2215 60.4567 25.6351C60.7059 26.0487 61.0292 26.3796 61.4261 26.6277C61.8232 26.8667 62.3079 26.9862 62.8804 26.9862C63.4066 26.9862 63.8636 26.876 64.2514 26.6553C64.6485 26.4348 64.9716 26.1268 65.221 25.7316C65.4794 25.3364 65.6734 24.863 65.8025 24.3116C65.9318 23.7509 65.9965 23.1351 65.9965 22.4642C65.9965 21.8575 65.9364 21.283 65.8165 20.7408C65.7056 20.1894 65.5256 19.7068 65.2763 19.2931C65.027 18.8704 64.7039 18.5395 64.3068 18.3005C63.9191 18.0524 63.4435 17.9283 62.8804 17.9283C62.3171 17.9283 61.8371 18.0477 61.44 18.2868C61.043 18.5257 60.7199 18.852 60.4705 19.2656C60.2213 19.6792 60.0412 20.1617 59.9304 20.7132C59.8196 21.2647 59.7643 21.8483 59.7643 22.4642Z" fill="#A0A1A3"/>
<path d="M81.9903 26.7517C81.7409 27.2112 81.4363 27.6018 81.0762 27.9235C80.7254 28.2452 80.3329 28.5118 79.8991 28.7232C79.4743 28.9253 79.0173 29.0769 78.5279 29.1781C78.0478 29.27 77.5539 29.316 77.0461 29.316C76.1966 29.316 75.4211 29.1644 74.7193 28.8609C74.0176 28.5577 73.4129 28.1211 72.9051 27.5513C72.4065 26.9722 72.0187 26.2645 71.7417 25.4281C71.4647 24.5917 71.3262 23.6358 71.3262 22.5605C71.3262 21.5494 71.4555 20.6027 71.714 19.7204C71.9725 18.838 72.3464 18.0706 72.8358 17.418C73.3344 16.7654 73.9438 16.2507 74.664 15.8739C75.3841 15.4971 76.2059 15.3086 77.1291 15.3086C78.1817 15.3086 79.1142 15.5108 79.9267 15.9152C80.7485 16.3197 81.4548 16.9814 82.0457 17.9005V17.5421C82.0457 16.8804 82.2257 16.384 82.5858 16.0531C82.9551 15.7131 83.463 15.5429 84.1093 15.5429C84.4971 15.5429 84.8248 15.6073 85.0926 15.736C85.3603 15.8555 85.5726 16.0393 85.7296 16.2875C85.8867 16.5265 85.9974 16.8252 86.062 17.1837C86.1359 17.5328 86.1728 17.9327 86.1728 18.3831V27.6202C86.1728 28.7415 86.0298 29.7433 85.7435 30.6257C85.4665 31.508 85.0325 32.2526 84.4416 32.8592C83.8507 33.4658 83.0937 33.9253 82.1703 34.2379C81.2471 34.5595 80.1483 34.7204 78.8742 34.7204C77.9786 34.7204 77.1846 34.6791 76.492 34.5962C75.8088 34.5228 75.2179 34.4079 74.7193 34.2517C74.2208 34.0769 73.8423 33.884 73.5837 33.6726C73.3344 33.4612 73.2098 33.1854 73.2098 32.8454C73.2098 32.6524 73.2374 32.4686 73.2928 32.2939C73.3483 32.1193 73.4313 31.9631 73.5421 31.8252C73.6622 31.6965 73.8145 31.5908 73.9992 31.508C74.193 31.4346 74.4284 31.3978 74.7055 31.3978C75.0009 31.3978 75.2964 31.4161 75.5918 31.4529C75.8965 31.4897 76.2105 31.5265 76.5336 31.5632C76.8659 31.6092 77.2122 31.6505 77.5723 31.6873C77.9416 31.724 78.3386 31.7425 78.7634 31.7425C79.2712 31.7425 79.7236 31.6919 80.1207 31.5908C80.5176 31.4897 80.8546 31.3105 81.1316 31.0531C81.4086 30.7958 81.621 30.4511 81.7687 30.0191C81.9164 29.5962 81.9903 29.054 81.9903 28.3922V26.7517ZM81.9903 22.464C81.9903 21.7929 81.9395 21.1818 81.838 20.6304C81.7457 20.0788 81.584 19.6101 81.3532 19.224C81.1224 18.8288 80.8131 18.5255 80.4253 18.3141C80.0375 18.0935 79.5528 17.9833 78.9711 17.9833C78.3986 17.9833 77.9232 18.0981 77.5447 18.3279C77.1753 18.5577 76.8799 18.8748 76.6583 19.2792C76.4367 19.6837 76.2798 20.1569 76.1873 20.6993C76.1043 21.2415 76.0628 21.8206 76.0628 22.4364C76.0628 23.8426 76.312 24.8997 76.8106 25.6073C77.3091 26.3151 78.0339 26.6689 78.9849 26.6689C79.4281 26.6598 79.8298 26.5769 80.1898 26.4207C80.5591 26.2553 80.8778 26.0026 81.1454 25.6625C81.4132 25.3224 81.621 24.8904 81.7687 24.3665C81.9164 23.8426 81.9903 23.2085 81.9903 22.464Z" fill="#A0A1A3"/>
<path d="M87.4448 22.4642C87.4448 21.4898 87.6018 20.5708 87.9157 19.7068C88.2389 18.8336 88.7189 18.0708 89.3561 17.4182C90.0024 16.7656 90.8056 16.2463 91.7658 15.8603C92.7353 15.4742 93.871 15.2812 95.1728 15.2812C96.4192 15.2812 97.5225 15.4604 98.4828 15.8189C99.443 16.1774 100.251 16.6783 100.906 17.3217C101.562 17.9558 102.061 18.7141 102.402 19.5964C102.744 20.4696 102.915 21.4255 102.915 22.4642C102.915 23.4292 102.753 24.3437 102.43 25.2077C102.107 26.0624 101.622 26.8162 100.976 27.4688C100.329 28.1121 99.5215 28.6268 98.552 29.0129C97.5826 29.3897 96.4562 29.5781 95.1728 29.5781C93.9078 29.5781 92.7907 29.3989 91.8212 29.0404C90.861 28.6728 90.0531 28.1718 89.3975 27.5376C88.7513 26.8943 88.2619 26.1407 87.9295 25.2767C87.6064 24.4035 87.4448 23.466 87.4448 22.4642ZM92.0566 22.4642C92.0566 23.0708 92.1121 23.6498 92.2229 24.2012C92.3337 24.7435 92.509 25.2215 92.7492 25.6351C92.9984 26.0487 93.3215 26.3796 93.7186 26.6277C94.1156 26.8667 94.6004 26.9862 95.1728 26.9862C95.6991 26.9862 96.1561 26.876 96.5439 26.6553C96.9408 26.4348 97.2641 26.1268 97.5133 25.7316C97.7719 25.3364 97.9657 24.863 98.095 24.3116C98.2243 23.7509 98.2889 23.1351 98.2889 22.4642C98.2889 21.8575 98.2289 21.283 98.1088 20.7408C97.9981 20.1894 97.818 19.7068 97.5687 19.2931C97.3195 18.8704 96.9963 18.5395 96.5993 18.3005C96.2115 18.0524 95.736 17.9283 95.1728 17.9283C94.6096 17.9283 94.1294 18.0477 93.7324 18.2868C93.3355 18.5257 93.0123 18.852 92.763 19.2656C92.5138 19.6792 92.3337 20.1617 92.2229 20.7132C92.1121 21.2647 92.0566 21.8483 92.0566 22.4642Z" fill="#A0A1A3"/>
<path d="M108.854 10.6345C108.854 10.9379 108.785 11.209 108.646 11.448C108.507 11.6777 108.327 11.8707 108.106 12.0271C107.884 12.1833 107.626 12.3027 107.33 12.3854C107.044 12.4589 106.749 12.4958 106.444 12.4958C106.121 12.4958 105.812 12.4543 105.516 12.3716C105.23 12.2889 104.976 12.1695 104.754 12.0132C104.533 11.8478 104.357 11.6502 104.228 11.4204C104.099 11.1906 104.034 10.9287 104.034 10.6345C104.034 10.368 104.094 10.1244 104.214 9.90384C104.343 9.67406 104.514 9.47645 104.727 9.311C104.939 9.14557 105.193 9.01689 105.488 8.92498C105.784 8.83306 106.107 8.78711 106.458 8.78711C106.763 8.78711 107.058 8.82847 107.344 8.91119C107.64 8.99391 107.898 9.11339 108.12 9.26965C108.341 9.4259 108.517 9.61891 108.646 9.84869C108.785 10.0785 108.854 10.3404 108.854 10.6345ZM108.646 26.6961C108.646 27.5693 108.466 28.2402 108.106 28.7089C107.755 29.1778 107.169 29.4121 106.347 29.4121C105.571 29.4121 105.022 29.1778 104.699 28.7089C104.385 28.2402 104.228 27.5693 104.228 26.6961V18.2586C104.228 17.3854 104.385 16.7145 104.699 16.2458C105.022 15.7771 105.571 15.5426 106.347 15.5426C107.169 15.5426 107.755 15.7771 108.106 16.2458C108.466 16.7145 108.646 17.3854 108.646 18.2586V26.6961Z" fill="#A0A1A3"/>
<path d="M115.015 22.4364C115.015 23.0522 115.061 23.6266 115.153 24.1598C115.255 24.6928 115.421 25.1615 115.652 25.566C115.892 25.9612 116.206 26.2737 116.594 26.5034C116.991 26.7333 117.48 26.8481 118.062 26.8481C118.597 26.8481 119.045 26.7379 119.405 26.5173C119.774 26.2875 120.07 25.9749 120.292 25.5798C120.513 25.1753 120.67 24.702 120.762 24.1598C120.864 23.6174 120.915 23.0292 120.915 22.3951C120.915 21.8895 120.878 21.3748 120.803 20.8509C120.73 20.3178 120.592 19.8353 120.389 19.4033C120.185 18.9713 119.904 18.6174 119.544 18.3417C119.183 18.066 118.713 17.9281 118.131 17.9281C117.549 17.9281 117.055 18.02 116.649 18.2039C116.252 18.3877 115.929 18.668 115.68 19.0448C115.439 19.4217 115.269 19.8951 115.167 20.4648C115.066 21.0255 115.015 21.6827 115.015 22.4364ZM115.001 18.2589C115.232 17.7719 115.527 17.3445 115.887 16.9768C116.247 16.6092 116.644 16.3013 117.078 16.0531C117.512 15.8049 117.965 15.6211 118.436 15.5017C118.916 15.3729 119.391 15.3086 119.862 15.3086C120.711 15.3086 121.478 15.4971 122.161 15.8739C122.844 16.2507 123.426 16.7654 123.906 17.418C124.395 18.0614 124.77 18.8242 125.028 19.7066C125.286 20.5798 125.416 21.5173 125.416 22.5191C125.416 23.5577 125.277 24.5089 125 25.3729C124.733 26.2369 124.349 26.9814 123.85 27.6064C123.361 28.2222 122.77 28.7047 122.077 29.054C121.394 29.4033 120.633 29.5779 119.793 29.5779C118.759 29.5779 117.835 29.3389 117.023 28.8609C116.21 28.3831 115.536 27.7121 115.001 26.8481V31.8114C115.001 32.6845 114.821 33.3555 114.461 33.8242C114.11 34.2929 113.524 34.5274 112.702 34.5274C111.926 34.5274 111.377 34.2929 111.054 33.8242C110.74 33.3555 110.583 32.6845 110.583 31.8114V18.2589C110.583 17.3858 110.74 16.7148 111.054 16.2461C111.377 15.7774 111.926 15.5429 112.702 15.5429C113.524 15.5429 114.11 15.7774 114.461 16.2461C114.821 16.7148 115.001 17.3858 115.001 18.2589Z" fill="#A0A1A3"/>
<path d="M130.288 19.2381C130.288 19.5964 130.445 19.8768 130.759 20.079C131.073 20.2721 131.507 20.4329 132.061 20.5616C132.587 20.681 133.127 20.796 133.681 20.9062C134.236 21.0165 134.776 21.1452 135.302 21.2923C135.827 21.4301 136.321 21.5956 136.784 21.7885C137.244 21.9816 137.651 22.2251 138.002 22.5193C138.353 22.8042 138.63 23.1535 138.833 23.567C139.036 23.9715 139.138 24.4587 139.138 25.0284C139.138 25.7454 138.99 26.3842 138.695 26.9448C138.399 27.4963 137.98 27.965 137.435 28.3511C136.899 28.7371 136.258 29.0358 135.51 29.2472C134.761 29.4587 133.935 29.5689 133.03 29.5781C132.172 29.5781 131.345 29.523 130.551 29.4127C129.758 29.3116 129.051 29.1507 128.432 28.9301C127.823 28.7095 127.334 28.4384 126.964 28.1167C126.595 27.7858 126.411 27.3998 126.411 26.9587C126.411 26.5725 126.535 26.2738 126.784 26.0624C127.034 25.8511 127.351 25.7454 127.74 25.7454C127.888 25.7454 128.063 25.7729 128.266 25.8281C128.469 25.8833 128.69 25.9522 128.93 26.0349C129.17 26.1176 129.424 26.2095 129.693 26.3107C129.969 26.4025 130.255 26.4852 130.551 26.5588C130.921 26.66 131.299 26.7427 131.686 26.807C132.083 26.8621 132.49 26.8897 132.906 26.8897C133.164 26.8897 133.418 26.8667 133.667 26.8208C133.916 26.7656 134.139 26.6875 134.332 26.5864C134.536 26.4761 134.701 26.3382 134.831 26.1728C134.96 26.0074 135.038 25.8051 135.066 25.5662C135.094 25.511 135.117 25.4558 135.135 25.4007C135.154 25.3456 135.163 25.2812 135.163 25.2077C135.163 24.9503 135.043 24.7205 134.803 24.5183C134.572 24.3162 134.244 24.1553 133.82 24.0358C133.108 23.8704 132.43 23.7188 131.783 23.5809C131.138 23.443 130.538 23.296 129.983 23.1397C129.439 22.9835 128.94 22.8042 128.487 22.602C128.044 22.3998 127.666 22.1516 127.351 21.8575C127.048 21.5634 126.807 21.2095 126.632 20.796C126.465 20.3823 126.382 19.8814 126.382 19.2931C126.382 18.659 126.525 18.0937 126.811 17.5974C127.107 17.0918 127.528 16.6691 128.072 16.329C128.617 15.9889 129.277 15.7316 130.053 15.557C130.828 15.3731 131.705 15.2812 132.684 15.2812C134.438 15.2812 135.772 15.4927 136.687 15.9154C137.61 16.329 138.072 16.8712 138.072 17.5423C138.072 17.9191 137.946 18.2087 137.697 18.4108C137.448 18.6038 137.148 18.7003 136.798 18.7003C136.612 18.7003 136.418 18.6682 136.215 18.6038C136.021 18.5303 135.786 18.4522 135.51 18.3695C135.232 18.2776 134.9 18.1995 134.512 18.1351C134.134 18.0616 133.662 18.0248 133.1 18.0248C132.674 18.0248 132.287 18.0431 131.936 18.08C131.594 18.1167 131.299 18.181 131.049 18.2729C130.809 18.3649 130.62 18.4889 130.482 18.6452C130.352 18.8015 130.288 18.999 130.288 19.2381Z" fill="#A0A1A3"/>
<path d="M144.758 24.2976C144.758 24.7296 144.814 25.1064 144.925 25.4281C145.044 25.7498 145.206 26.021 145.41 26.2416C145.613 26.453 145.848 26.6138 146.115 26.724C146.393 26.8252 146.688 26.8758 147.002 26.8758C147.371 26.8758 147.727 26.8206 148.069 26.7103C148.41 26.6 148.71 26.4299 148.969 26.2001C149.236 25.9704 149.449 25.6809 149.606 25.3316C149.762 24.9824 149.841 24.5733 149.841 24.1046V18.259C149.841 17.3858 149.999 16.7149 150.312 16.2461C150.636 15.7774 151.185 15.543 151.96 15.543C152.782 15.543 153.368 15.7774 153.719 16.2461C154.079 16.7149 154.259 17.3858 154.259 18.259V26.6965C154.259 27.5697 154.079 28.2406 153.719 28.7093C153.368 29.1781 152.782 29.4125 151.96 29.4125C151.185 29.4125 150.636 29.1781 150.312 28.7093C149.999 28.2406 149.841 27.5697 149.841 26.6965C149.648 27.1193 149.394 27.5053 149.079 27.8546C148.774 28.2039 148.415 28.5072 147.999 28.7645C147.592 29.0127 147.141 29.2057 146.642 29.3436C146.153 29.4814 145.621 29.5504 145.049 29.5504C144.431 29.5504 143.835 29.4446 143.262 29.2333C142.7 29.0127 142.201 28.691 141.767 28.2681C141.334 27.8363 140.987 27.3031 140.728 26.669C140.47 26.0347 140.341 25.2949 140.341 24.4492V18.259C140.341 17.3858 140.498 16.7149 140.811 16.2461C141.135 15.7774 141.683 15.543 142.46 15.543C143.281 15.543 143.867 15.7774 144.218 16.2461C144.579 16.7149 144.758 17.3858 144.758 18.259V24.2976Z" fill="#A0A1A3"/>
<path d="M156.265 18.2589C156.265 17.3858 156.422 16.7148 156.736 16.2461C157.059 15.7774 157.608 15.5429 158.384 15.5429C159.206 15.5429 159.792 15.7774 160.143 16.2461C160.503 16.7148 160.683 17.3858 160.683 18.2589C160.868 17.8178 161.117 17.418 161.432 17.0595C161.754 16.6919 162.119 16.3794 162.525 16.122C162.941 15.8647 163.389 15.6671 163.868 15.5292C164.348 15.3821 164.847 15.3086 165.365 15.3086C165.844 15.3086 166.315 15.3729 166.777 15.5017C167.247 15.6211 167.682 15.8187 168.079 16.0945C168.485 16.3609 168.84 16.7011 169.145 17.1147C169.45 17.5282 169.685 18.0246 169.852 18.6037C170.138 17.9879 170.475 17.4686 170.862 17.0458C171.25 16.6229 171.671 16.2828 172.122 16.0255C172.575 15.7681 173.046 15.5844 173.536 15.474C174.034 15.3638 174.532 15.3086 175.031 15.3086C175.622 15.3086 176.185 15.4144 176.721 15.6257C177.266 15.8371 177.741 16.1588 178.147 16.5908C178.563 17.0135 178.891 17.5513 179.13 18.2039C179.38 18.8472 179.504 19.6009 179.504 20.4648V26.6965C179.504 27.5697 179.324 28.2406 178.964 28.7093C178.614 29.1781 178.027 29.4125 177.205 29.4125C176.43 29.4125 175.88 29.1781 175.558 28.7093C175.243 28.2406 175.086 27.5697 175.086 26.6965V20.6579C175.086 20.2442 175.031 19.8766 174.921 19.5549C174.81 19.224 174.653 18.9484 174.449 18.7278C174.255 18.498 174.025 18.3279 173.757 18.2177C173.49 18.0981 173.202 18.0384 172.899 18.0384C172.519 18.0384 172.16 18.0981 171.819 18.2177C171.477 18.3371 171.177 18.5209 170.918 18.7691C170.669 19.0173 170.465 19.3344 170.308 19.7204C170.16 20.1064 170.087 20.5706 170.087 21.1128V26.6965C170.087 27.5697 169.906 28.2406 169.547 28.7093C169.196 29.1781 168.61 29.4125 167.787 29.4125C167.012 29.4125 166.463 29.1781 166.14 28.7093C165.826 28.2406 165.668 27.5697 165.668 26.6965V20.9198C165.668 19.9732 165.47 19.2562 165.074 18.7691C164.685 18.282 164.154 18.0384 163.481 18.0384C163.084 18.0384 162.714 18.1027 162.372 18.2314C162.031 18.3601 161.735 18.5485 161.486 18.7967C161.237 19.0448 161.038 19.3527 160.89 19.7204C160.752 20.088 160.683 20.5108 160.683 20.9887V26.6965C160.683 27.5697 160.503 28.2406 160.143 28.7093C159.792 29.1781 159.206 29.4125 158.384 29.4125C157.608 29.4125 157.059 29.1781 156.736 28.7093C156.422 28.2406 156.265 27.5697 156.265 26.6965V18.2589Z" fill="#A0A1A3"/>
<path d="M20.5909 27.0588C16.6747 27.0588 13.5 23.8985 13.5 20C13.5 16.1015 16.6747 12.9412 20.5909 12.9412C24.5071 12.9412 27.6818 16.1015 27.6818 20C27.6818 23.8985 24.5071 27.0588 20.5909 27.0588Z" fill="#A0A1A3"/>
<path d="M6.85374 22.4113C4.79885 22.772 3.39034 24.748 4.17914 26.6711C5.28041 29.3558 7.03733 31.7478 9.31506 33.617C12.572 36.2896 16.6801 37.7177 20.9003 37.6444C25.1206 37.5711 29.1761 36.0011 32.3375 33.2169C34.5482 31.2698 36.2202 28.8182 37.2268 26.0969C37.9477 24.1476 36.4707 22.2217 34.4044 21.9326C32.3382 21.6436 30.483 23.1408 29.4624 24.9525C28.9091 25.9345 28.191 26.8255 27.3306 27.5832C25.5167 29.1807 23.1899 30.0815 20.7685 30.1236C18.3471 30.1656 15.9901 29.3463 14.1214 27.8128C13.2349 27.0853 12.486 26.2199 11.8987 25.2577C10.8152 23.4825 8.90863 22.0506 6.85374 22.4113Z" fill="#A0A1A3"/>
<path d="M38.1812 22.2039C38.2718 21.4814 38.3183 20.7454 38.3183 19.9986C38.3183 10.2524 30.3816 2.35156 20.591 2.35156C10.8005 2.35156 2.86377 10.2524 2.86377 19.9986C2.86377 20.9571 2.94053 21.8977 3.08827 22.8147C3.90252 21.7051 5.17335 20.913 6.54603 20.672C8.03121 20.4113 9.381 20.7699 10.5223 21.4402C10.4548 20.9693 10.42 20.488 10.42 19.9986C10.42 14.4067 14.9737 9.87356 20.591 9.87356C26.2083 9.87356 30.7621 14.4067 30.7621 19.9986C30.7621 20.3673 30.7423 20.7314 30.7037 21.0899C31.8209 20.3802 33.1576 19.9746 34.6513 20.1837C36.0311 20.3767 37.3285 21.1238 38.1812 22.2039Z" fill="#A0A1A3"/>
</svg>
