<svg width="137" height="40" viewBox="0 0 137 40" fill="none" xmlns="http://www.w3.org/2000/svg">
<path d="M54.6083 25.4119H63.6697V22.9302H57.6012V11.1746H54.6083V25.4119Z" fill="#A0A1A3"/>
<path d="M69.8093 25.6206C73.0302 25.6206 75.0346 23.403 75.0346 20.1148C75.0346 16.8056 73.0302 14.595 69.8093 14.595C66.5884 14.595 64.584 16.8056 64.584 20.1148C64.584 23.403 66.5884 25.6206 69.8093 25.6206ZM69.8231 23.3265C68.3371 23.3265 67.5768 21.9569 67.5768 20.0938C67.5768 18.2308 68.3371 16.8544 69.8231 16.8544C71.2816 16.8544 72.0418 18.2308 72.0418 20.0938C72.0418 21.9569 71.2816 23.3265 69.8231 23.3265Z" fill="#A0A1A3"/>
<path d="M81.1486 29.6388C84.1829 29.6388 86.3393 28.2483 86.3393 25.5163V14.734H83.4157V16.5276H83.3051C82.9111 15.6586 82.0472 14.595 80.2708 14.595C77.9415 14.595 75.9717 16.4164 75.9717 20.0522C75.9717 23.6045 77.8862 25.2591 80.2777 25.2591C81.9711 25.2591 82.918 24.404 83.3051 23.5211H83.4295V25.4746C83.4295 26.9414 82.4964 27.5115 81.2177 27.5115C79.9183 27.5115 79.2617 26.9414 79.0198 26.2949L76.2966 26.6634C76.649 28.3456 78.2871 29.6388 81.1486 29.6388ZM81.2108 23.0345C79.7662 23.0345 78.9783 21.8805 78.9783 20.0383C78.9783 18.2238 79.7525 16.9517 81.2108 16.9517C82.6416 16.9517 83.4433 18.1682 83.4433 20.0383C83.4433 21.9222 82.6277 23.0345 81.2108 23.0345Z" fill="#A0A1A3"/>
<path d="M92.8953 25.6206C96.1162 25.6206 98.1206 23.403 98.1206 20.1148C98.1206 16.8056 96.1162 14.595 92.8953 14.595C89.6744 14.595 87.6699 16.8056 87.6699 20.1148C87.6699 23.403 89.6744 25.6206 92.8953 25.6206ZM92.9091 23.3265C91.4231 23.3265 90.6627 21.9569 90.6627 20.0938C90.6627 18.2308 91.4231 16.8544 92.9091 16.8544C94.3675 16.8544 95.1278 18.2308 95.1278 20.0938C95.1278 21.9569 94.3675 23.3265 92.9091 23.3265Z" fill="#A0A1A3"/>
<path d="M99.4515 25.412H102.396V14.734H99.4515V25.412ZM100.931 13.3575C101.808 13.3575 102.527 12.6833 102.527 11.856C102.527 11.0357 101.808 10.3613 100.931 10.3613C100.06 10.3613 99.3408 11.0357 99.3408 11.856C99.3408 12.6833 100.06 13.3575 100.931 13.3575Z" fill="#A0A1A3"/>
<path d="M104.171 29.4163H107.115V23.7018H107.205C107.613 24.5917 108.504 25.5858 110.218 25.5858C112.638 25.5858 114.524 23.6602 114.524 20.0869C114.524 16.4164 112.554 14.595 110.225 14.595C108.449 14.595 107.599 15.6586 107.205 16.5276H107.073V14.734H104.171V29.4163ZM107.053 20.073C107.053 18.1682 107.854 16.9517 109.285 16.9517C110.744 16.9517 111.518 18.2238 111.518 20.073C111.518 21.9361 110.73 23.2291 109.285 23.2291C107.868 23.2291 107.053 21.9778 107.053 20.073Z" fill="#A0A1A3"/>
<path d="M124.737 17.7789C124.473 15.8116 122.898 14.595 120.216 14.595C117.499 14.595 115.71 15.8602 115.716 17.9179C115.71 19.5169 116.711 20.5527 118.785 20.9698L120.624 21.3383C121.55 21.5259 121.972 21.8666 121.985 22.4018C121.972 23.0345 121.288 23.4864 120.258 23.4864C119.207 23.4864 118.509 23.0345 118.33 22.1655L115.433 22.3185C115.71 24.3623 117.437 25.6206 120.251 25.6206C123.001 25.6206 124.971 24.2093 124.978 22.103C124.971 20.5597 123.969 19.6351 121.91 19.211L119.988 18.8216C118.999 18.6062 118.633 18.2655 118.641 17.7511C118.633 17.1116 119.352 16.6945 120.264 16.6945C121.288 16.6945 121.896 17.2575 122.04 17.9457L124.737 17.7789Z" fill="#A0A1A3"/>
<path d="M133.057 20.8656C133.064 22.2977 132.089 23.0485 131.031 23.0485C129.919 23.0485 129.2 22.263 129.193 21.0046V14.7341H126.249V21.533C126.255 24.0287 127.707 25.5512 129.842 25.5512C131.439 25.5512 132.587 24.7239 133.064 23.4725H133.174V25.4121H136.001V14.7341H133.057V20.8656Z" fill="#A0A1A3"/>
<path d="M17.9605 2.05127H27.1369L23.4535 12.4044C16.9704 13.5502 12.0118 19.859 12.0118 27.4697C12.0118 30.9031 13.021 34.0715 14.7238 36.6204H2.53906L13.6783 5.31084C14.3787 3.34217 16.0746 2.05127 17.9605 2.05127Z" fill="#A0A1A3"/>
<path d="M27.1371 2.05127L24.5484 9.32743L23.7684 2.05127H27.1371Z" fill="#A0A1A3"/>
<path d="M32.9448 2.05127H23.7684L27.4363 12.3607C34.0484 13.3797 39.1421 19.7559 39.1421 27.4697C39.1421 30.9031 38.133 34.0715 36.4301 36.6204H48.3662L37.227 5.31085C36.5267 3.34217 34.8307 2.05127 32.9448 2.05127Z" fill="#A0A1A3"/>
<path d="M16.3244 35.6241C14.7562 33.3779 13.8211 30.5467 13.8211 27.4697C13.8211 20.1698 19.0846 14.2522 25.5773 14.2522C32.0702 14.2522 37.3337 20.1698 37.3337 27.4697C37.3337 30.5467 36.3986 33.3779 34.8304 35.6241C32.2561 33.6965 29.0513 32.5534 25.5773 32.5534C22.1035 32.5534 18.8987 33.6965 16.3244 35.6241Z" fill="#A0A1A3"/>
</svg>
