<svg width="166" height="42" viewBox="0 0 166 42" fill="none" xmlns="http://www.w3.org/2000/svg">
<path d="M10.1569 23.5336C7.09174 21.5422 4.20205 20.3544 0.927455 16.8074C0.430784 18.482 0.237318 20.2672 0.371945 22.0157C2.5285 21.4223 6.20989 21.0577 10.1569 23.5336Z" fill="url(#paint0_linear_1_1073)"/>
<path d="M11.9891 39.5041C11.9604 39.8995 11.8668 40.287 11.6819 40.6589C13.2348 38.7359 14.627 36.6384 15.2653 34.2949C15.9037 31.9514 15.7087 29.3189 14.2796 27.3118C13.9256 26.8147 13.5058 26.3279 13.0469 25.8632C12.8047 25.621 12.5623 25.3916 12.3201 25.1743C12.2894 25.147 12.2591 25.1192 12.2281 25.0921C12.2254 25.0897 12.2226 25.0872 12.2199 25.0848C11.6141 24.5545 10.9709 24.0688 10.3364 23.6507C10.2763 23.6112 10.2165 23.5725 10.1566 23.5336C6.20954 21.0578 2.5282 21.4223 0.371653 22.0157L0.371658 22.0158C11.9489 30.3868 12.3879 36.9516 11.9891 39.5041Z" fill="url(#paint1_linear_1_1073)"/>
<path d="M0.371765 22.0159C0.371765 22.0159 5.47734 25.9282 9.27918 33.5837C9.27925 33.5839 9.27932 33.584 9.27939 33.5842C10.2441 34.406 11.0046 35.4293 11.4057 36.571C11.7405 37.5241 12.0595 38.538 11.9893 39.5041C12.3881 36.9517 11.9491 30.3868 0.371765 22.0159Z" fill="url(#paint2_linear_1_1073)"/>
<path d="M0.371765 22.0159C0.605756 25.0544 1.83148 27.9822 4.18481 30.026C5.28681 30.9831 7.65307 32.3526 8.83001 33.2262C8.98421 33.3407 9.13402 33.4602 9.27946 33.5842C9.27939 33.584 9.27932 33.5839 9.27925 33.5837C5.47734 25.9281 0.371765 22.0159 0.371765 22.0159Z" fill="url(#paint3_linear_1_1073)"/>
<path d="M17.6222 22.2425C10.2156 15.4729 6.76986 6.21075 5.87585 3.48843C5.7719 3.2347 5.69047 2.97675 5.63536 2.71551C5.63368 2.70971 5.63265 2.70592 5.63265 2.70592C5.63265 2.70592 5.6333 2.70623 5.63356 2.70635C5.51735 2.14925 5.52128 1.57749 5.69027 1C5.69027 1 -2.09935 8.9749 11.0009 22.8166C11.0009 22.8166 10.9988 22.8156 10.997 22.8148C12.156 23.6383 13.2649 24.5147 14.2423 25.5267C14.2919 25.578 14.3407 25.6301 14.3895 25.6822C14.9249 24.0971 16.1201 22.998 17.6222 22.2425Z" fill="url(#paint4_linear_1_1073)"/>
<path d="M14.5738 11.4211C12.7291 10.0669 10.0929 8.25256 8.36617 6.70153C7.35013 5.78886 6.36649 4.68509 5.87622 3.48828C6.77023 6.2106 10.2159 15.4728 17.6226 22.2423C18.9004 21.5996 20.3998 21.2052 21.9037 20.9715C21.3615 16.5088 18.64 14.4063 14.5738 11.4211Z" fill="url(#paint5_linear_1_1073)"/>
<path d="M5.69024 1C3.328 2.13624 1.4577 4.15769 0.579751 6.52334C-0.298195 8.88906 -0.174111 11.573 0.918708 13.8572C2.1791 16.4915 4.58742 18.4646 7.06227 20.1612C8.36376 21.0534 9.71133 21.9014 10.997 22.8149C10.9988 22.8156 11.0009 22.8166 11.0009 22.8166C-2.09938 8.9749 5.69024 1 5.69024 1Z" fill="url(#paint6_linear_1_1073)"/>
<path d="M17.1808 33.4169C19.5216 31.28 21.1011 28.4309 21.7149 25.4114C20.2336 24.4548 18.8717 23.3842 17.6225 22.2424C16.1204 22.998 14.9252 24.0971 14.3898 25.6822C16.372 27.8016 17.7295 30.6429 17.1808 33.4169Z" fill="url(#paint7_linear_1_1073)"/>
<path d="M21.7146 25.4115C22.0065 23.9755 22.081 22.501 21.9133 21.046C21.9104 21.0208 21.9064 20.9967 21.9034 20.9717C20.3994 21.2054 18.9 21.5998 17.6223 22.2425C18.8714 23.3842 20.2333 24.4549 21.7146 25.4115Z" fill="url(#paint8_linear_1_1073)"/>
<path d="M31.6814 31L35.4894 11.4H38.3175L43.0915 23.958L47.8654 11.4H50.6935L54.5015 31H51.0155L48.6635 18.876L44.2534 30.552H41.9154L37.5054 18.876L35.1674 31H31.6814ZM62.5329 31.364C61.2449 31.364 60.0689 31.0327 59.0049 30.37C57.9502 29.7073 57.1055 28.8207 56.4709 27.71C55.8455 26.59 55.5329 25.3533 55.5329 24C55.5329 22.9733 55.7149 22.0167 56.0789 21.13C56.4429 20.234 56.9422 19.45 57.5769 18.778C58.2209 18.0967 58.9675 17.5647 59.8169 17.182C60.6662 16.7993 61.5715 16.608 62.5329 16.608C63.8209 16.608 64.9922 16.9393 66.0469 17.602C67.1109 18.2647 67.9555 19.156 68.5809 20.276C69.2155 21.396 69.5329 22.6373 69.5329 24C69.5329 25.0173 69.3509 25.9693 68.9869 26.856C68.6229 27.7427 68.1189 28.5267 67.4749 29.208C66.8402 29.88 66.0982 30.4073 65.2489 30.79C64.4089 31.1727 63.5035 31.364 62.5329 31.364ZM62.5329 27.948C63.2142 27.948 63.8255 27.766 64.3669 27.402C64.9082 27.038 65.3329 26.5573 65.6409 25.96C65.9582 25.3627 66.1169 24.7093 66.1169 24C66.1169 23.272 65.9535 22.6093 65.6269 22.012C65.3095 21.4053 64.8755 20.9247 64.3249 20.57C63.7835 20.206 63.1862 20.024 62.5329 20.024C61.8609 20.024 61.2542 20.206 60.7129 20.57C60.1715 20.934 59.7422 21.4193 59.4249 22.026C59.1075 22.6327 58.9489 23.2907 58.9489 24C58.9489 24.7373 59.1122 25.4047 59.4389 26.002C59.7655 26.5993 60.1995 27.0753 60.7409 27.43C61.2915 27.7753 61.8889 27.948 62.5329 27.948ZM84.5367 22.152V31H81.1207V23.048C81.1207 22.4973 80.9854 21.998 80.7147 21.55C80.444 21.0927 80.08 20.7333 79.6227 20.472C79.1747 20.2013 78.6754 20.066 78.1247 20.066C77.574 20.066 77.07 20.2013 76.6127 20.472C76.1647 20.7333 75.8054 21.0927 75.5347 21.55C75.2734 21.998 75.1427 22.4973 75.1427 23.048V31H71.7267L71.7127 17H75.1287L75.1427 18.246C75.6187 17.742 76.188 17.3453 76.8507 17.056C77.5134 16.7573 78.2274 16.608 78.9927 16.608C80.01 16.608 80.9387 16.86 81.7787 17.364C82.6187 17.8587 83.286 18.526 83.7807 19.366C84.2847 20.1967 84.5367 21.1253 84.5367 22.152ZM99.91 31H95.976L92.784 25.498L90.824 27.836V31H87.408V10H90.824V22.53L95.458 17H99.924L95.122 22.726L99.91 31ZM105.921 31.252C105.193 31.2053 104.488 31.0607 103.807 30.818C103.135 30.566 102.537 30.2253 102.015 29.796C101.492 29.3667 101.091 28.8533 100.811 28.256L103.695 27.024C103.807 27.2107 103.989 27.4113 104.241 27.626C104.493 27.8313 104.791 28.004 105.137 28.144C105.491 28.284 105.879 28.354 106.299 28.354C106.653 28.354 106.989 28.3073 107.307 28.214C107.633 28.1113 107.895 27.9573 108.091 27.752C108.296 27.5467 108.399 27.2807 108.399 26.954C108.399 26.6087 108.277 26.3427 108.035 26.156C107.801 25.96 107.503 25.8153 107.139 25.722C106.784 25.6193 106.439 25.526 106.103 25.442C105.216 25.2647 104.39 24.9893 103.625 24.616C102.869 24.2427 102.257 23.762 101.791 23.174C101.333 22.5767 101.105 21.858 101.105 21.018C101.105 20.094 101.347 19.296 101.833 18.624C102.327 17.952 102.967 17.434 103.751 17.07C104.544 16.706 105.398 16.524 106.313 16.524C107.423 16.524 108.441 16.7573 109.365 17.224C110.298 17.6813 111.035 18.33 111.577 19.17L108.875 20.766C108.744 20.542 108.562 20.3367 108.329 20.15C108.095 19.954 107.829 19.7953 107.531 19.674C107.232 19.5433 106.919 19.4687 106.593 19.45C106.173 19.4313 105.79 19.4687 105.445 19.562C105.099 19.6553 104.819 19.814 104.605 20.038C104.399 20.262 104.297 20.5607 104.297 20.934C104.297 21.2887 104.437 21.5547 104.717 21.732C104.997 21.9 105.333 22.0307 105.725 22.124C106.126 22.2173 106.509 22.32 106.873 22.432C107.694 22.7027 108.464 23.034 109.183 23.426C109.911 23.818 110.494 24.2987 110.933 24.868C111.371 25.4373 111.581 26.1187 111.563 26.912C111.563 27.8173 111.292 28.6107 110.751 29.292C110.209 29.964 109.509 30.4773 108.651 30.832C107.801 31.1867 106.891 31.3267 105.921 31.252ZM120.685 31V11.4H127.685C128.749 11.4 129.711 11.666 130.569 12.198C131.437 12.73 132.123 13.444 132.627 14.34C133.131 15.236 133.383 16.2207 133.383 17.294C133.383 18.3953 133.122 19.394 132.599 20.29C132.086 21.1767 131.395 21.886 130.527 22.418C129.659 22.9407 128.712 23.202 127.685 23.202H124.101V31H120.685ZM124.101 19.786H127.321C127.807 19.786 128.25 19.6647 128.651 19.422C129.053 19.1793 129.37 18.8527 129.603 18.442C129.846 18.0313 129.967 17.574 129.967 17.07C129.967 16.5567 129.846 16.0947 129.603 15.684C129.37 15.2733 129.053 14.9467 128.651 14.704C128.25 14.4613 127.807 14.34 127.321 14.34H124.101V19.786ZM145.542 17H148.958V31H145.542L145.388 29.264C145.005 29.8893 144.497 30.398 143.862 30.79C143.237 31.1727 142.495 31.364 141.636 31.364C140.6 31.364 139.629 31.168 138.724 30.776C137.819 30.384 137.021 29.8427 136.33 29.152C135.649 28.4613 135.112 27.6633 134.72 26.758C134.337 25.8527 134.146 24.882 134.146 23.846C134.146 22.8473 134.328 21.9093 134.692 21.032C135.065 20.1547 135.583 19.3847 136.246 18.722C136.909 18.0593 137.674 17.5413 138.542 17.168C139.41 16.7947 140.343 16.608 141.342 16.608C142.266 16.608 143.092 16.8133 143.82 17.224C144.557 17.6347 145.183 18.1573 145.696 18.792L145.542 17ZM141.552 28.074C142.28 28.074 142.924 27.892 143.484 27.528C144.044 27.164 144.483 26.674 144.8 26.058C145.117 25.4327 145.276 24.7467 145.276 24C145.276 23.244 145.117 22.558 144.8 21.942C144.483 21.3167 144.039 20.822 143.47 20.458C142.91 20.094 142.271 19.912 141.552 19.912C140.833 19.912 140.175 20.0987 139.578 20.472C138.99 20.836 138.519 21.326 138.164 21.942C137.819 22.558 137.646 23.244 137.646 24C137.646 24.756 137.823 25.442 138.178 26.058C138.533 26.674 139.004 27.164 139.592 27.528C140.189 27.892 140.843 28.074 141.552 28.074ZM160.586 17H164.212L156.554 38H152.928L155.462 31L150.422 17H154.16L157.17 26.324L160.586 17Z" fill="#01081B"/>
<defs>
<linearGradient id="paint0_linear_1_1073" x1="0.300048" y1="20.3384" x2="10.0302" y2="19.9902" gradientUnits="userSpaceOnUse">
<stop stop-color="#B974FF"/>
<stop offset="0.6071" stop-color="#932EFA"/>
<stop offset="1" stop-color="#6104C0"/>
</linearGradient>
<linearGradient id="paint1_linear_1_1073" x1="0.705219" y1="31.3386" x2="15.5844" y2="30.8061" gradientUnits="userSpaceOnUse">
<stop stop-color="#6104C0"/>
<stop offset="0.3929" stop-color="#932EFA"/>
<stop offset="1" stop-color="#B974FF"/>
</linearGradient>
<linearGradient id="paint2_linear_1_1073" x1="0.690989" y1="30.9358" x2="11.8079" y2="30.538" gradientUnits="userSpaceOnUse">
<stop stop-color="#6104C0"/>
<stop offset="0.3929" stop-color="#932EFA"/>
<stop offset="1" stop-color="#B974FF"/>
</linearGradient>
<linearGradient id="paint3_linear_1_1073" x1="5.03745" y1="33.7201" x2="4.65808" y2="21.8785" gradientUnits="userSpaceOnUse">
<stop stop-color="#6104C0"/>
<stop offset="0.3929" stop-color="#932EFA"/>
<stop offset="1" stop-color="#B974FF"/>
</linearGradient>
<linearGradient id="paint4_linear_1_1073" x1="-4.91876e-05" y1="13.3411" x2="22.0018" y2="13.3411" gradientUnits="userSpaceOnUse">
<stop stop-color="#0437B9"/>
<stop offset="0.5612" stop-color="#2E68FD"/>
<stop offset="1" stop-color="#5E8BFC"/>
</linearGradient>
<linearGradient id="paint5_linear_1_1073" x1="10.8002" y1="13.9176" x2="16.542" y2="10.414" gradientUnits="userSpaceOnUse">
<stop stop-color="#5E8BFC"/>
<stop offset="0.2004" stop-color="#6B94FB"/>
<stop offset="0.4235" stop-color="#2E68FD"/>
<stop offset="1" stop-color="#0437B9"/>
</linearGradient>
<linearGradient id="paint6_linear_1_1073" x1="1.83482" y1="15.4572" x2="11.0724" y2="9.82036" gradientUnits="userSpaceOnUse">
<stop stop-color="#0437B9"/>
<stop offset="0.3929" stop-color="#2E68FD"/>
<stop offset="1" stop-color="#5E8BFC"/>
</linearGradient>
<linearGradient id="paint7_linear_1_1073" x1="18.0523" y1="33.4169" x2="18.0523" y2="22.2425" gradientUnits="userSpaceOnUse">
<stop stop-color="#5E8BFC"/>
<stop offset="0.4388" stop-color="#2E68FD"/>
<stop offset="1" stop-color="#0437B9"/>
</linearGradient>
<linearGradient id="paint8_linear_1_1073" x1="19.8118" y1="25.4115" x2="19.8118" y2="20.9717" gradientUnits="userSpaceOnUse">
<stop stop-color="#5E8BFC"/>
<stop offset="0.4388" stop-color="#2E68FD"/>
<stop offset="1" stop-color="#0437B9"/>
</linearGradient>
</defs>
</svg>
