<svg width="188" height="40" viewBox="0 0 188 40" fill="none" xmlns="http://www.w3.org/2000/svg">
<path d="M30.4453 17.827C29.939 18.3354 29.5514 18.949 29.3099 19.624C29.0684 20.299 28.979 21.0189 29.0481 21.7324L29.024 21.7084C29.0951 22.5482 28.9816 23.3933 28.6916 24.1849C28.4016 24.9764 27.9421 25.6952 27.3452 26.2912C26.7481 26.887 26.028 27.3458 25.235 27.6352C24.4421 27.9246 23.5954 28.038 22.7542 27.967L22.7783 27.991C21.7719 27.8976 20.7612 28.1161 19.8838 28.617C19.0065 29.118 18.3052 29.8768 17.8758 30.7901C17.4463 31.7034 17.3094 32.7266 17.4839 33.7205C17.6585 34.7142 18.1357 35.6301 18.8507 36.3432C19.5657 37.0562 20.4836 37.5318 21.4793 37.705C22.475 37.8784 23.4999 37.7408 24.4145 37.3113C25.3291 36.8817 26.0886 36.1812 26.5896 35.3049C27.0906 34.4286 27.3087 33.4196 27.2142 32.415L27.2395 32.439C27.1685 31.5993 27.2819 30.7541 27.5719 29.9625C27.8618 29.171 28.3215 28.4522 28.9184 27.8562C29.5155 27.2604 30.2355 26.8016 31.0284 26.5122C31.8214 26.2228 32.668 26.1094 33.5094 26.1804L33.484 26.1564C34.306 26.2301 35.1335 26.0956 35.8896 25.7652C36.6456 25.4348 37.306 24.9192 37.8093 24.2662C38.3126 23.6133 38.6428 22.844 38.7689 22.0298C38.8951 21.2156 38.8134 20.3828 38.5313 19.6084C38.2492 18.8341 37.7758 18.1434 37.1551 17.6004C36.5344 17.0573 35.7864 16.6794 34.9804 16.5018C34.1744 16.3242 33.3365 16.3525 32.5445 16.5841C31.7524 16.8158 31.0318 17.2433 30.4493 17.827H30.4453Z" fill="#A0A1A3"/>
<path d="M20.5919 24.8483L20.5665 24.8243C21.2815 24.8962 22.0036 24.8086 22.6807 24.5678C23.3576 24.327 23.9726 23.9391 24.481 23.4321C24.9892 22.925 25.3784 22.3114 25.6201 21.6358C25.8618 20.9602 25.9501 20.2395 25.8787 19.5257L25.904 19.5497C25.833 18.7098 25.9465 17.8647 26.2364 17.0731C26.5263 16.2817 26.986 15.5629 27.5829 14.9669C28.18 14.371 28.9 13.9122 29.6929 13.6229C30.4859 13.3333 31.3325 13.2201 32.1739 13.291L32.1485 13.267C33.155 13.3614 34.166 13.1435 35.0438 12.6431C35.9218 12.1428 36.6235 11.3843 37.0536 10.4711C37.4837 9.55797 37.6212 8.5346 37.4473 7.54059C37.2734 6.54657 36.7965 5.63033 36.0816 4.91681C35.3669 4.20331 34.449 3.72725 33.4532 3.55363C32.4575 3.37999 31.4323 3.5172 30.5175 3.94656C29.6026 4.37591 28.8429 5.07651 28.3416 5.95279C27.8403 6.82905 27.622 7.83835 27.7166 8.84299L27.6926 8.81765C27.7638 9.65751 27.6505 10.5028 27.3606 11.2944C27.0708 12.086 26.6112 12.8049 26.0142 13.401C25.4172 13.9969 24.697 14.4557 23.9039 14.745C23.1108 15.0343 22.2641 15.1474 21.4227 15.0763L21.4468 15.1017C20.7318 15.0298 20.0095 15.1174 19.3326 15.3582C18.6557 15.5989 18.0407 15.9869 17.5323 16.4939C17.0239 17.001 16.6348 17.6146 16.3931 18.2902C16.1515 18.9658 16.0632 19.6865 16.1346 20.4003L16.1106 20.3763C16.1814 21.2161 16.0677 22.0611 15.7777 22.8526C15.4876 23.6439 15.0281 24.3627 14.4312 24.9586C13.8342 25.5545 13.1142 26.0131 12.3214 26.3027C11.5285 26.5922 10.682 26.7057 9.84074 26.635L9.86478 26.659C8.85835 26.5646 7.84725 26.7825 6.96941 27.2829C6.09157 27.7833 5.38972 28.5417 4.95961 29.4549C4.52948 30.3681 4.39201 31.3914 4.56596 32.3854C4.73991 33.3794 5.21682 34.2957 5.9316 35.0091C6.64639 35.7227 7.56427 36.1987 8.56006 36.3723C9.55584 36.5459 10.581 36.4087 11.4958 35.9794C12.4106 35.5501 13.1705 34.8495 13.6717 33.9733C14.173 33.0969 14.3913 32.0877 14.2967 31.083L14.3221 31.107C14.251 30.2671 14.3645 29.4221 14.6545 28.6305C14.9444 27.839 15.404 27.1202 16.0009 26.5242C16.598 25.9283 17.3181 25.4695 18.1109 25.1802C18.904 24.8907 19.7505 24.7774 20.5919 24.8483Z" fill="#A0A1A3"/>
<path d="M11.6399 22.1706C12.1462 21.6623 12.5338 21.0487 12.7751 20.3737C13.0164 19.6986 13.1054 18.9786 13.0358 18.2653L13.0611 18.2893C12.9901 17.4493 13.1035 16.6038 13.3937 15.8121C13.6838 15.0203 14.1436 14.3014 14.7409 13.7054C15.3383 13.1094 16.0586 12.6508 16.8519 12.3615C17.6452 12.0722 18.4921 11.9593 19.3336 12.0306L19.3083 12.0066C20.3143 12.1007 21.3251 11.8827 22.2025 11.3824C23.0799 10.8821 23.7813 10.1238 24.2113 9.21092C24.6411 8.29804 24.7784 7.27504 24.6045 6.2814C24.4306 5.28776 23.9537 4.37187 23.2393 3.65862C22.5248 2.94536 21.6072 2.46947 20.6118 2.29584C19.6164 2.1222 18.5915 2.2593 17.6771 2.68839C16.7625 3.11748 16.0029 3.81771 15.5017 4.69358C15.0005 5.56944 14.7821 6.57832 14.8764 7.58262L14.8523 7.55862C14.9234 8.39842 14.8098 9.24358 14.5199 10.0351C14.2299 10.8266 13.7704 11.5454 13.1734 12.1414C12.5764 12.7373 11.8563 13.196 11.0634 13.4854C10.2704 13.7749 9.42378 13.8882 8.58248 13.8173L8.60652 13.8413C7.78448 13.7677 6.95713 13.9025 6.20114 14.233C5.44515 14.5636 4.78498 15.0793 4.2818 15.7323C3.77862 16.3853 3.44873 17.1546 3.32266 17.9688C3.19661 18.783 3.27848 19.6158 3.56068 20.3899C3.84287 21.1642 4.31629 21.8547 4.93704 22.3977C5.55778 22.9408 6.30578 23.3185 7.11173 23.4961C7.91766 23.6736 8.75546 23.6451 9.54749 23.4135C10.3395 23.1818 11.0601 22.7544 11.6426 22.1706H11.6399Z" fill="#A0A1A3"/>
<path d="M53.0161 8.87305H56.9832V28.1437H53.0161V8.87305Z" fill="#A0A1A3"/>
<path d="M59.23 21.5452C59.2245 20.1604 59.6309 18.805 60.3976 17.6508C61.1643 16.4967 62.2569 15.5956 63.537 15.0619C64.8172 14.528 66.2272 14.3855 67.5885 14.6523C68.9499 14.9191 70.2013 15.5831 71.1843 16.5604C72.1672 17.5376 72.8375 18.7842 73.1102 20.142C73.383 21.4999 73.2458 22.908 72.7162 24.188C72.1866 25.4679 71.2883 26.5623 70.1352 27.3322C68.9819 28.1022 67.6259 28.5132 66.2385 28.5132C65.3177 28.5238 64.4039 28.3508 63.5507 28.0047C62.6974 27.6586 61.9219 27.1462 61.2694 26.4975C60.6168 25.8487 60.1004 25.0766 59.7503 24.2263C59.4001 23.376 59.2232 22.4646 59.23 21.5452ZM69.2799 21.5452C69.2634 20.9483 69.0709 20.3695 68.7267 19.8811C68.3823 19.3928 67.9015 19.0166 67.3442 18.7996C66.7868 18.5826 66.1779 18.5343 65.5932 18.661C65.0086 18.7876 64.4743 19.0834 64.0572 19.5115C63.6402 19.9395 63.3586 20.4808 63.2481 21.0678C63.1375 21.6546 63.2026 22.261 63.4354 22.8111C63.6682 23.3612 64.0582 23.8306 64.5567 24.1606C65.0553 24.4906 65.6404 24.6666 66.2385 24.6666C66.6482 24.6775 67.0557 24.6035 67.4354 24.4494C67.8151 24.2952 68.1586 24.0643 68.4443 23.7711C68.73 23.4778 68.9519 23.1286 69.0956 22.7455C69.2395 22.3624 69.3022 21.9538 69.2799 21.5452Z" fill="#A0A1A3"/>
<path d="M89.0579 14.9457V27.4791C89.0579 31.9137 85.5931 33.7884 82.0761 33.7884C80.8379 33.8809 79.598 33.6312 78.4924 33.0668C77.387 32.5023 76.4585 31.6448 75.8089 30.5884L79.1936 28.6351C79.4667 29.1857 79.9017 29.64 80.4404 29.9372C80.9792 30.2343 81.5961 30.3601 82.2084 30.2977C82.5997 30.3519 82.9983 30.3175 83.3746 30.1971C83.7507 30.0767 84.095 29.8733 84.382 29.6023C84.6689 29.3311 84.891 28.9991 85.0321 28.6305C85.173 28.2621 85.2291 27.8668 85.1963 27.4737V26.2671C84.7318 26.8344 84.1406 27.2852 83.4699 27.5832C82.7993 27.8812 82.0681 28.0181 81.3348 27.9831C79.5901 27.9281 77.9353 27.1977 76.7206 25.9463C75.5059 24.6949 74.8267 23.0208 74.8267 21.2784C74.8267 19.536 75.5059 17.8619 76.7206 16.6105C77.9353 15.3591 79.5901 14.6287 81.3348 14.5737C82.0681 14.5387 82.7993 14.6756 83.4699 14.9736C84.1406 15.2716 84.7318 15.7224 85.1963 16.2897V14.9431L89.0579 14.9457ZM85.1977 21.2804C85.2244 20.6423 85.059 20.0107 84.7231 19.4671C84.3872 18.9233 83.8959 18.4925 83.3126 18.23C82.7293 17.9673 82.0807 17.8851 81.4501 17.9936C80.8195 18.1021 80.2359 18.3965 79.7743 18.8391C79.3128 19.2815 78.9945 19.8516 78.8603 20.4761C78.7261 21.1007 78.7822 21.7511 79.0216 22.3435C79.2608 22.9359 79.6722 23.4433 80.2028 23.8004C80.7333 24.1575 81.3588 24.3479 81.9986 24.3471C82.4155 24.3761 82.8337 24.3177 83.2266 24.1756C83.6194 24.0335 83.978 23.8107 84.2794 23.5219C84.5807 23.2329 84.8182 22.8843 84.9764 22.4981C85.1345 22.1121 85.21 21.6973 85.1977 21.2804Z" fill="#A0A1A3"/>
<path d="M91.3045 21.5452C91.299 20.1604 91.7052 18.805 92.4721 17.6508C93.2388 16.4967 94.3314 15.5956 95.6115 15.0619C96.8917 14.528 98.3017 14.3855 99.663 14.6523C101.024 14.9191 102.276 15.5831 103.259 16.5604C104.242 17.5376 104.912 18.7842 105.185 20.142C105.457 21.4999 105.32 22.908 104.791 24.188C104.261 25.4679 103.363 26.5623 102.21 27.3322C101.056 28.1022 99.7004 28.5132 98.313 28.5132C97.3922 28.5238 96.4783 28.3508 95.6252 28.0047C94.7719 27.6586 93.9964 27.1462 93.3439 26.4975C92.6913 25.8487 92.1749 25.0766 91.8248 24.2263C91.4746 23.376 91.2977 22.4646 91.3045 21.5452ZM101.354 21.5452C101.338 20.9483 101.145 20.3695 100.801 19.8811C100.457 19.3928 99.976 19.0166 99.4187 18.7996C98.8613 18.5826 98.2522 18.5343 97.6677 18.661C97.0831 18.7876 96.5488 19.0834 96.1317 19.5115C95.7147 19.9395 95.4331 20.4808 95.3225 21.0678C95.2119 21.6546 95.2771 22.261 95.5099 22.8111C95.7427 23.3612 96.1327 23.8306 96.6312 24.1606C97.1298 24.4906 97.7147 24.6666 98.313 24.6666C98.7227 24.6775 99.1302 24.6035 99.5098 24.4494C99.8896 24.2952 100.233 24.0643 100.519 23.7711C100.805 23.4778 101.026 23.1286 101.17 22.7455C101.314 22.3624 101.377 21.9538 101.354 21.5452Z" fill="#A0A1A3"/>
<path d="M107.171 11.4073C107.171 10.9373 107.311 10.4779 107.573 10.0872C107.834 9.69649 108.206 9.39195 108.641 9.21212C109.076 9.03228 109.554 8.98523 110.016 9.07691C110.478 9.16859 110.902 9.39488 111.235 9.72717C111.568 10.0595 111.794 10.4828 111.886 10.9437C111.978 11.4046 111.931 11.8823 111.751 12.3165C111.571 12.7507 111.265 13.1217 110.874 13.3829C110.483 13.6439 110.022 13.7833 109.552 13.7833C108.922 13.777 108.321 13.5247 107.875 13.0804C107.431 12.6362 107.178 12.0355 107.171 11.4073ZM107.572 14.9446H111.541V28.1446H107.567L107.572 14.9446Z" fill="#A0A1A3"/>
<path d="M128.67 21.545C128.715 22.4174 128.588 23.2902 128.295 24.1133C128.002 24.9364 127.548 25.6934 126.961 26.341C126.373 26.9885 125.664 27.5138 124.872 27.8866C124.081 28.2593 123.223 28.4722 122.349 28.513C121.614 28.553 120.879 28.4293 120.198 28.1508C119.516 27.8721 118.906 27.4457 118.41 26.9024V33.4237H114.443V14.945H118.41V16.185C118.906 15.6421 119.517 15.216 120.198 14.9377C120.879 14.6593 121.614 14.5357 122.349 14.5757C123.223 14.6164 124.081 14.8292 124.873 15.202C125.664 15.5748 126.374 16.1001 126.962 16.7478C127.549 17.3956 128.003 18.1529 128.296 18.9762C128.589 19.7994 128.716 20.6725 128.67 21.545ZM124.702 21.545C124.687 20.9273 124.489 20.3278 124.134 19.8216C123.779 19.3154 123.282 18.925 122.706 18.6994C122.13 18.4737 121.499 18.4226 120.894 18.5528C120.289 18.6828 119.736 18.9881 119.304 19.4305C118.871 19.873 118.579 20.4328 118.464 21.0401C118.349 21.6473 118.416 22.2748 118.657 22.8442C118.897 23.4137 119.301 23.8996 119.817 24.2413C120.333 24.5829 120.938 24.7652 121.557 24.765C121.982 24.784 122.406 24.7129 122.802 24.5566C123.197 24.4005 123.555 24.1625 123.852 23.8585C124.149 23.5544 124.379 23.1912 124.525 22.7925C124.672 22.3938 124.732 21.9686 124.702 21.545Z" fill="#A0A1A3"/>
<path d="M140.912 24.1832C140.912 27.2192 138.268 28.5125 135.413 28.5125C134.259 28.6168 133.1 28.3733 132.087 27.8132C131.073 27.2532 130.251 26.4025 129.727 25.3712L133.163 23.4178C133.302 23.8945 133.601 24.3093 134.009 24.5926C134.418 24.8761 134.912 25.0112 135.407 24.9752C136.358 24.9752 136.835 24.6845 136.835 24.1578C136.835 22.7045 130.329 23.4712 130.329 18.9045C130.329 16.0258 132.763 14.5752 135.513 14.5752C136.547 14.5425 137.57 14.7873 138.477 15.284C139.384 15.7808 140.141 16.5112 140.669 17.3992L137.284 19.2205C137.136 18.8748 136.889 18.5802 136.573 18.3737C136.258 18.1672 135.89 18.0578 135.513 18.0592C134.825 18.0592 134.402 18.3258 134.402 18.7978C134.407 20.3032 140.912 19.2992 140.912 24.1832Z" fill="#A0A1A3"/>
<path d="M155.403 14.9453V28.1453H151.436V26.904C150.978 27.4517 150.397 27.8833 149.739 28.1633C149.082 28.4433 148.369 28.5637 147.656 28.5146C144.984 28.5146 142.714 26.6146 142.714 23.048V14.9453H146.681V22.468C146.647 22.7824 146.683 23.1002 146.786 23.3993C146.888 23.6985 147.055 23.9718 147.274 24.2002C147.493 24.4286 147.758 24.6066 148.054 24.722C148.348 24.8373 148.664 24.8872 148.981 24.868C150.435 24.868 151.44 24.024 151.44 22.1493V14.9493L155.403 14.9453Z" fill="#A0A1A3"/>
<path d="M178.15 20.041V28.145H174.183V20.3836C174.183 19.0636 173.548 18.2196 172.279 18.2196C170.957 18.2196 170.216 19.1436 170.216 20.701V28.145H166.25V20.3836C166.25 19.0636 165.616 18.2196 164.345 18.2196C163.023 18.2196 162.283 19.1436 162.283 20.701V28.145H158.316V14.945H162.283V16.1583C162.694 15.62 163.234 15.1931 163.852 14.9167C164.472 14.6402 165.151 14.523 165.827 14.5756C166.505 14.5424 167.181 14.6855 167.789 14.9907C168.395 15.2958 168.912 15.7528 169.29 16.317C169.73 15.7267 170.312 15.2574 170.982 14.9528C171.653 14.6483 172.39 14.5186 173.125 14.5756C176.161 14.577 178.15 16.741 178.15 20.041Z" fill="#A0A1A3"/>
<path d="M181.505 14.8637C183.131 14.8637 184.449 13.5479 184.449 11.925C184.449 10.302 183.131 8.98633 181.505 8.98633C179.88 8.98633 178.562 10.302 178.562 11.925C178.562 13.5479 179.88 14.8637 181.505 14.8637Z" fill="#A0A1A3"/>
</svg>
