<svg width="106" height="40" viewBox="0 0 106 40" fill="none" xmlns="http://www.w3.org/2000/svg">
<path d="M48.636 35.238H51.3704V24.9237H48.636V35.238ZM48.636 23.3152H51.3704V20.8623H48.636V23.3152Z" fill="#A0A1A3"/>
<path d="M53.1323 38.6159H55.8667V34.072H55.907C56.49 34.9566 57.435 35.5397 58.8826 35.5397C61.5366 35.5397 63.3461 33.4286 63.3461 30.091C63.3461 26.874 61.5969 24.6423 58.8625 24.6423C57.4551 24.6423 56.49 25.3058 55.8265 26.2105H55.7662V24.9238H53.1323V38.6159ZM58.2996 33.2677C56.671 33.2677 55.8064 32.0413 55.8064 30.1714C55.8064 28.3217 56.49 26.8539 58.199 26.8539C59.8879 26.8539 60.5715 28.2211 60.5715 30.1714C60.5715 32.1217 59.6869 33.2677 58.2996 33.2677Z" fill="#A0A1A3"/>
<path d="M68.8007 35.5397C71.3742 35.5397 73.1435 34.2931 73.1435 32.2222C73.1435 29.8095 71.2335 29.327 69.5044 28.9651C68.0366 28.6635 66.6694 28.583 66.6694 27.6984C66.6694 26.9545 67.3731 26.5523 68.4388 26.5523C69.6049 26.5523 70.3086 26.9545 70.4292 28.0603H72.9023C72.7012 25.9894 71.1933 24.6423 68.479 24.6423C66.1266 24.6423 64.2768 25.7079 64.2768 27.9396C64.2768 30.1915 66.0864 30.6942 67.9361 31.0561C69.3435 31.3375 70.6504 31.4381 70.6504 32.4233C70.6504 33.1471 69.9668 33.6095 68.7604 33.6095C67.534 33.6095 66.6895 33.0868 66.5086 31.9005H63.9752C64.1361 34.0921 65.8049 35.5397 68.8007 35.5397Z" fill="#A0A1A3"/>
<path d="M83.5252 35.2381V24.9238H80.7908V30.8751C80.7908 32.2423 80.0067 33.2074 78.7199 33.2074C77.5538 33.2074 77.0109 32.5439 77.0109 31.3375V24.9238H74.2966V31.8C74.2966 34.0518 75.5834 35.5196 77.8755 35.5196C79.3231 35.5196 80.1273 34.9767 80.8311 34.0317H80.8914V35.2381H83.5252Z" fill="#A0A1A3"/>
<path d="M85.2939 35.2381H88.0284V29.2465C88.0284 27.8793 88.7723 26.9947 89.8781 26.9947C90.8834 26.9947 91.4665 27.5978 91.4665 28.764V35.2381H94.2009V29.2465C94.2009 27.8793 94.9046 26.9947 96.0506 26.9947C97.0559 26.9947 97.639 27.5978 97.639 28.764V35.2381H100.373V28.3016C100.373 26.0497 99.1469 24.6423 96.9755 24.6423C95.6686 24.6423 94.5829 25.3259 93.8792 26.4518H93.839C93.3363 25.3661 92.2908 24.6423 90.9839 24.6423C89.5564 24.6423 88.5511 25.3661 87.9881 26.3111H87.9278V24.9238H85.2939V35.2381Z" fill="#A0A1A3"/>
<path d="M48.6762 17.572H51.4106V3.19629H48.6762V17.572Z" fill="#A0A1A3"/>
<path d="M58.0966 17.8737C61.2935 17.8737 63.485 15.5012 63.485 12.425C63.485 9.34881 61.2935 6.97632 58.0966 6.97632C54.8998 6.97632 52.7082 9.34881 52.7082 12.425C52.7082 15.5012 54.8998 17.8737 58.0966 17.8737ZM58.0966 15.7827C56.4077 15.7827 55.4829 14.4356 55.4829 12.425C55.4829 10.4144 56.4077 9.04723 58.0966 9.04723C59.7654 9.04723 60.7104 10.4144 60.7104 12.425C60.7104 14.4356 59.7654 15.7827 58.0966 15.7827Z" fill="#A0A1A3"/>
<path d="M69.3 21.0907C70.8281 21.0907 72.1551 20.7288 73.0196 19.9245C73.7836 19.2208 74.2461 18.2356 74.2461 16.788V7.2578H71.6122V8.34352H71.572C70.9487 7.47896 70.0037 6.97632 68.7169 6.97632C66.1032 6.97632 64.2534 8.9467 64.2534 12.0229C64.2534 15.1393 66.5053 16.9488 68.7974 16.9488C70.1043 16.9488 70.8884 16.4261 71.4916 15.7425H71.5519V16.8684C71.5519 18.2758 70.808 19.0197 69.2598 19.0197C67.9931 19.0197 67.4101 18.5171 67.1889 17.8737H64.4746C64.7561 19.8843 66.4852 21.0907 69.3 21.0907ZM69.2598 14.7573C67.8524 14.7573 66.9275 13.7319 66.9275 11.9827C66.9275 10.2536 67.8524 9.16786 69.2397 9.16786C70.8884 9.16786 71.6926 10.4546 71.6926 11.9626C71.6926 13.4906 70.9889 14.7573 69.2598 14.7573Z" fill="#A0A1A3"/>
<path d="M80.8925 17.8737C84.0893 17.8737 86.2809 15.5012 86.2809 12.425C86.2809 9.34881 84.0893 6.97632 80.8925 6.97632C77.6957 6.97632 75.5041 9.34881 75.5041 12.425C75.5041 15.5012 77.6957 17.8737 80.8925 17.8737ZM80.8925 15.7827C79.2036 15.7827 78.2787 14.4356 78.2787 12.425C78.2787 10.4144 79.2036 9.04723 80.8925 9.04723C82.5613 9.04723 83.5063 10.4144 83.5063 12.425C83.5063 14.4356 82.5613 15.7827 80.8925 15.7827Z" fill="#A0A1A3"/>
<path d="M88.6779 13.6312H100.5V11.2788H88.6779V13.6312Z" fill="#A0A1A3"/>
<path d="M101.367 23.1718C101.367 22.7091 101.742 22.334 102.205 22.334H103.88C104.343 22.334 104.718 22.7091 104.718 23.1718C104.718 23.6344 104.343 24.0095 103.88 24.0095H102.205C101.742 24.0095 101.367 23.6344 101.367 23.1718Z" fill="#A0A1A3"/>
<path fill-rule="evenodd" clip-rule="evenodd" d="M21.0216 0C32.0673 0 41.0216 8.9543 41.0216 20C41.0216 31.0457 32.0673 40 21.0216 40C9.97591 40 1.02161 31.0457 1.02161 20C1.02161 8.9543 9.97591 0 21.0216 0ZM20.2987 1.49659C18.0171 1.81769 15.8445 3.65108 14.158 6.7174C13.6688 7.60683 13.2274 8.58946 12.8427 9.65044C15.1359 9.07417 17.655 8.73442 20.2987 8.68187V1.49659ZM11.1524 10.1308C11.6307 8.62958 12.2159 7.2484 12.8912 6.02065C13.7272 4.50059 14.7194 3.18795 15.8373 2.17977C9.7584 3.94523 4.96683 8.73679 3.20138 14.8157C4.20955 13.6978 5.5222 12.7056 7.04226 11.8696C8.27001 11.1943 9.65118 10.6091 11.1524 10.1308ZM10.672 11.8211C10.0958 14.1143 9.75603 16.6334 9.70348 19.2771H2.51819C2.8393 16.9954 4.67269 14.8228 7.73901 13.1364C8.62844 12.6472 9.61107 12.2058 10.672 11.8211ZM11.1496 19.2771C11.2093 16.392 11.6246 13.6834 12.3118 11.2902C14.705 10.603 17.4137 10.1876 20.2987 10.1279V13.2508C19.2224 16.0062 17.0272 18.2012 14.2717 19.2771H11.1496ZM9.70348 20.7229H2.51819C2.8393 23.0046 4.67269 25.1771 7.73901 26.8636C8.62844 27.3528 9.61107 27.7942 10.672 28.1789C10.0958 25.8857 9.75603 23.3666 9.70348 20.7229ZM12.3118 28.7098C11.6246 26.3166 11.2093 23.608 11.1496 20.7229H14.2717C17.0272 21.7988 19.2225 23.9938 20.2987 26.7492V29.8721C17.4137 29.8124 14.705 29.397 12.3118 28.7098ZM11.1524 29.8692C9.65118 29.3909 8.27001 28.8057 7.04226 28.1304C5.5222 27.2944 4.20955 26.3022 3.20138 25.1843C4.96683 31.2632 9.7584 36.0548 15.8373 37.8202C14.7194 36.812 13.7272 35.4994 12.8912 33.9793C12.2159 32.7516 11.6307 31.3704 11.1524 29.8692ZM20.2987 38.5034C18.0171 38.1823 15.8445 36.3489 14.158 33.2826C13.6688 32.3932 13.2274 31.4105 12.8427 30.3496C15.1359 30.9258 17.655 31.2656 20.2987 31.3181V38.5034ZM26.2059 37.8202C27.3238 36.812 28.316 35.4994 29.1521 33.9793C29.8273 32.7516 30.4125 31.3704 30.8908 29.8692C32.392 29.3909 33.7732 28.8057 35.001 28.1304C36.521 27.2944 37.8337 26.3022 38.8418 25.1843C37.0764 31.2632 32.2848 36.0548 26.2059 37.8202ZM29.2005 30.3496C28.8158 31.4105 28.3744 32.3932 27.8852 33.2826C26.1988 36.3489 24.0262 38.1823 21.7445 38.5034V31.3181C24.3882 31.2656 26.9073 30.9258 29.2005 30.3496ZM31.3712 28.1789C32.4321 27.7942 33.4148 27.3528 34.3042 26.8636C37.3705 25.1771 39.2039 23.0046 39.525 20.7229H32.3397C32.2872 23.3666 31.9474 25.8857 31.3712 28.1789ZM30.8937 20.7229C30.834 23.608 30.4186 26.3166 29.7314 28.7098C27.3382 29.397 24.6296 29.8124 21.7445 29.8721V26.7515C22.8204 23.9951 25.0161 21.7991 27.7724 20.7229H30.8937ZM32.3397 19.2771H39.525C39.2039 16.9954 37.3705 14.8228 34.3042 13.1364C33.4148 12.6472 32.4321 12.2058 31.3712 11.8211C31.9474 14.1143 32.2872 16.6334 32.3397 19.2771ZM29.7314 11.2902C30.4186 13.6834 30.834 16.392 30.8937 19.2771H27.7724C25.0161 18.2009 22.8204 16.0049 21.7445 13.2485V10.1279C24.6296 10.1876 27.3382 10.603 29.7314 11.2902ZM30.8908 10.1308C32.392 10.6091 33.7732 11.1943 35.001 11.8696C36.521 12.7056 37.8337 13.6978 38.8418 14.8157C37.0764 8.73679 32.2848 3.94523 26.2059 2.17977C27.3238 3.18795 28.316 4.50059 29.1521 6.02065C29.8273 7.2484 30.4125 8.62958 30.8908 10.1308ZM21.7445 1.49659C24.0262 1.81769 26.1988 3.65108 27.8852 6.7174C28.3744 7.60684 28.8158 8.58946 29.2005 9.65044C26.9073 9.07417 24.3882 8.73442 21.7445 8.68187V1.49659Z" fill="#A0A1A3"/>
</svg>
