<svg width="90" height="96" viewBox="0 0 90 96" fill="none" xmlns="http://www.w3.org/2000/svg">
<path d="M24.2 69.04C20.9467 69.04 17.9867 68.2933 15.32 66.8C12.6533 65.28 10.3467 63.1867 8.4 60.52C6.48 57.8533 5 54.7733 3.96 51.28C2.92 47.76 2.4 44 2.4 40C2.4 36 2.92 32.2533 3.96 28.76C5 25.24 6.48 22.1467 8.4 19.48C10.3467 16.8133 12.6533 14.7333 15.32 13.24C17.9867 11.72 20.9467 10.96 24.2 10.96C27.4533 10.96 30.4133 11.72 33.08 13.24C35.7467 14.7333 38.0267 16.8133 39.92 19.48C41.84 22.1467 43.32 25.24 44.36 28.76C45.4267 32.2533 45.96 36 45.96 40C45.96 44 45.4267 47.76 44.36 51.28C43.32 54.7733 41.84 57.8533 39.92 60.52C38.0267 63.1867 35.7467 65.28 33.08 66.8C30.4133 68.2933 27.4533 69.04 24.2 69.04ZM24.2 59.28C27.0533 59.28 29.4133 58.3733 31.28 56.56C33.1467 54.7467 34.5333 52.3733 35.44 49.44C36.3467 46.5067 36.8 43.36 36.8 40C36.8 36.4533 36.32 33.2267 35.36 30.32C34.4 27.3867 32.9867 25.0533 31.12 23.32C29.2533 21.5867 26.9467 20.72 24.2 20.72C22.04 20.72 20.16 21.2533 18.56 22.32C16.9867 23.36 15.68 24.7867 14.64 26.6C13.6 28.4133 12.8267 30.48 12.32 32.8C11.8133 35.0933 11.56 37.4933 11.56 40C11.56 43.3333 12.0133 46.48 12.92 49.44C13.8533 52.3733 15.2533 54.7467 17.12 56.56C19.0133 58.3733 21.3733 59.28 24.2 59.28ZM68.7994 69.04C65.4127 69.04 62.3594 68.24 59.6394 66.64C56.9194 65.04 54.7594 62.8933 53.1594 60.2C51.5594 57.48 50.7594 54.4667 50.7594 51.16H60.5194C60.5194 52.6533 60.866 54.0133 61.5594 55.24C62.2794 56.4667 63.266 57.4533 64.5194 58.2C65.7727 58.92 67.1994 59.28 68.7994 59.28C70.266 59.28 71.626 58.92 72.8794 58.2C74.1594 57.4533 75.186 56.4667 75.9594 55.24C76.7327 54.0133 77.1194 52.6533 77.1194 51.16C77.1194 49.2133 76.5994 47.6 75.5594 46.32C74.5194 45.0133 73.066 44.04 71.1994 43.4C69.3594 42.76 67.2127 42.44 64.7594 42.44V34.92C68.066 34.92 70.6794 34.2933 72.5994 33.04C74.546 31.7867 75.5194 29.9467 75.5194 27.52C75.5194 26.2667 75.1994 25.12 74.5594 24.08C73.9194 23.04 73.066 22.2133 71.9994 21.6C70.9594 20.96 69.8127 20.64 68.5594 20.64C67.2794 20.64 66.0394 20.96 64.8394 21.6C63.6394 22.2133 62.6527 23.04 61.8794 24.08C61.1327 25.12 60.7594 26.2667 60.7594 27.52H50.9994C50.9994 25.2267 51.466 23.08 52.3994 21.08C53.3327 19.0533 54.6127 17.28 56.2394 15.76C57.8927 14.24 59.7594 13.0533 61.8394 12.2C63.946 11.32 66.146 10.88 68.4394 10.88C71.4527 10.88 74.2394 11.6267 76.7994 13.12C79.3594 14.6133 81.4127 16.6133 82.9594 19.12C84.506 21.6267 85.2794 24.4267 85.2794 27.52C85.2794 29.68 84.7727 31.8 83.7594 33.88C82.746 35.96 81.306 37.4267 79.4394 38.28C81.066 38.8667 82.426 39.8533 83.5194 41.24C84.6127 42.6 85.4394 44.16 85.9994 45.92C86.586 47.6533 86.8794 49.4 86.8794 51.16C86.8794 54.44 86.0527 57.44 84.3994 60.16C82.746 62.8533 80.546 65.0133 77.7994 66.64C75.0794 68.24 72.0794 69.04 68.7994 69.04Z" fill="#F3F3F3"/>
<path d="M51.386 83.426C51.154 82.866 50.606 82.5 50 82.5H18C17.172 82.5 16.5 83.172 16.5 84C16.5 84.828 17.172 85.5 18 85.5H46.378L42.938 88.94C42.352 89.526 42.352 90.476 42.938 91.062C43.23 91.354 43.614 91.502 43.998 91.502C44.382 91.502 44.766 91.356 45.058 91.062L51.058 85.062C51.486 84.632 51.616 83.988 51.384 83.428L51.386 83.426Z" fill="#2E68FD"/>
<path d="M48 52.5H20C16.966 52.5 14.5 54.966 14.5 58V74C14.5 77.034 16.966 79.5 20 79.5H48C51.034 79.5 53.5 77.034 53.5 74V58C53.5 54.966 51.034 52.5 48 52.5ZM50.5 74C50.5 75.378 49.378 76.5 48 76.5H20C18.622 76.5 17.5 75.378 17.5 74V58C17.5 56.622 18.622 55.5 20 55.5H48C49.378 55.5 50.5 56.622 50.5 58V74ZM25.5 60C25.5 60.828 24.828 61.5 24 61.5H22C21.172 61.5 20.5 60.828 20.5 60C20.5 59.172 21.172 58.5 22 58.5H24C24.828 58.5 25.5 59.172 25.5 60ZM47.5 72C47.5 72.828 46.828 73.5 46 73.5H44C43.172 73.5 42.5 72.828 42.5 72C42.5 71.172 43.172 70.5 44 70.5H46C46.828 70.5 47.5 71.172 47.5 72ZM34 58.5C29.864 58.5 26.5 61.864 26.5 66C26.5 70.136 29.864 73.5 34 73.5C38.136 73.5 41.5 70.136 41.5 66C41.5 61.864 38.136 58.5 34 58.5ZM34 70.5C31.518 70.5 29.5 68.482 29.5 66C29.5 63.518 31.518 61.5 34 61.5C36.482 61.5 38.5 63.518 38.5 66C38.5 68.482 36.482 70.5 34 70.5Z" fill="#01081B"/>
</svg>
