<svg width="225" height="410" viewBox="0 0 225 410" fill="none" xmlns="http://www.w3.org/2000/svg">
<g opacity="0.08">
<path d="M103.874 230.445C72.5274 210.08 42.9755 197.933 9.48732 161.659C4.40803 178.784 2.42952 197.04 3.8063 214.922C25.8606 208.853 63.5091 205.124 103.874 230.445Z" fill="url(#paint0_linear_3045_225)"/>
<path d="M122.612 393.77C122.318 397.814 121.361 401.777 119.47 405.58C135.351 385.914 149.589 364.464 156.117 340.498C162.645 316.532 160.651 289.609 146.036 269.084C142.416 264 138.122 259.022 133.429 254.27C130.953 251.793 128.474 249.447 125.997 247.225C125.683 246.945 125.373 246.661 125.056 246.383C125.028 246.359 125 246.334 124.972 246.309C118.777 240.886 112.199 235.918 105.71 231.643C105.096 231.239 104.484 230.844 103.872 230.446C63.506 205.126 25.8582 208.854 3.80387 214.923L3.80392 214.924C122.201 300.531 126.69 367.667 122.612 393.77Z" fill="url(#paint1_linear_3045_225)"/>
<path d="M3.80518 214.924C3.80518 214.924 56.0182 254.934 94.8984 333.225C94.8991 333.226 94.8998 333.228 94.9005 333.23C104.766 341.634 112.544 352.099 116.646 363.775C120.069 373.522 123.332 383.891 122.614 393.771C126.692 367.668 122.202 300.531 3.80518 214.924Z" fill="url(#paint2_linear_3045_225)"/>
<path d="M3.80518 214.924C6.19813 245.998 18.7332 275.94 42.7999 296.841C54.0697 306.629 78.2686 320.635 90.3048 329.568C91.8818 330.739 93.4138 331.962 94.9012 333.229C94.9005 333.228 94.8998 333.226 94.899 333.225C56.0182 254.933 3.80518 214.924 3.80518 214.924Z" fill="url(#paint3_linear_3045_225)"/>
<path d="M180.217 217.24C104.471 148.01 69.2329 53.2887 60.0902 25.4484C59.0271 22.8535 58.1943 20.2156 57.6308 17.5439C57.6136 17.4846 57.603 17.4459 57.603 17.4459C57.603 17.4459 57.6097 17.449 57.6123 17.4503C56.4238 11.753 56.4641 5.90584 58.1923 0C58.1923 0 -21.4696 81.5566 112.503 223.111C112.503 223.111 112.481 223.101 112.462 223.093C124.315 231.514 135.656 240.477 145.652 250.826C146.158 251.351 146.657 251.884 147.157 252.417C152.632 236.206 164.855 224.966 180.217 217.24Z" fill="url(#paint4_linear_3045_225)"/>
<path d="M149.038 106.573C130.173 92.7237 103.214 74.1695 85.555 58.3076C75.1644 48.974 65.105 37.6862 60.0912 25.4468C69.234 53.2871 104.472 148.008 180.218 217.238C193.285 210.666 208.619 206.632 223.999 204.242C218.454 158.603 190.622 137.101 149.038 106.573Z" fill="url(#paint5_linear_3045_225)"/>
<path d="M58.1922 0C34.0343 11.62 14.9074 32.2926 5.92893 56.4854C-3.04954 80.6788 -1.78058 108.127 9.39532 131.486C22.285 158.426 46.9141 178.604 72.2235 195.955C85.5335 205.08 99.3146 213.752 112.462 223.093C112.481 223.101 112.503 223.111 112.503 223.111C-21.4697 81.5567 58.1922 0 58.1922 0Z" fill="url(#paint6_linear_3045_225)"/>
<path d="M175.701 331.516C199.64 309.663 215.793 280.527 222.07 249.647C206.921 239.864 192.994 228.915 180.219 217.239C164.857 224.966 152.634 236.206 147.158 252.416C167.43 274.09 181.312 303.148 175.701 331.516Z" fill="url(#paint7_linear_3045_225)"/>
<path d="M222.066 249.648C225.052 234.962 225.814 219.884 224.098 205.004C224.068 204.746 224.028 204.5 223.997 204.244C208.616 206.634 193.282 210.668 180.215 217.241C192.99 228.916 206.918 239.866 222.066 249.648Z" fill="url(#paint8_linear_3045_225)"/>
</g>
<defs>
<linearGradient id="paint0_linear_3045_225" x1="3.07104" y1="197.769" x2="102.578" y2="194.208" gradientUnits="userSpaceOnUse">
<stop stop-color="#B974FF"/>
<stop offset="0.6071" stop-color="#932EFA"/>
<stop offset="1" stop-color="#6104C0"/>
</linearGradient>
<linearGradient id="paint1_linear_3045_225" x1="7.21513" y1="310.265" x2="159.38" y2="304.819" gradientUnits="userSpaceOnUse">
<stop stop-color="#6104C0"/>
<stop offset="0.3929" stop-color="#932EFA"/>
<stop offset="1" stop-color="#B974FF"/>
</linearGradient>
<linearGradient id="paint2_linear_3045_225" x1="7.06978" y1="306.146" x2="120.758" y2="302.077" gradientUnits="userSpaceOnUse">
<stop stop-color="#6104C0"/>
<stop offset="0.3929" stop-color="#932EFA"/>
<stop offset="1" stop-color="#B974FF"/>
</linearGradient>
<linearGradient id="paint3_linear_3045_225" x1="51.5196" y1="334.619" x2="47.6399" y2="213.52" gradientUnits="userSpaceOnUse">
<stop stop-color="#6104C0"/>
<stop offset="0.3929" stop-color="#932EFA"/>
<stop offset="1" stop-color="#B974FF"/>
</linearGradient>
<linearGradient id="paint4_linear_3045_225" x1="-0.000739398" y1="126.208" x2="225.005" y2="126.208" gradientUnits="userSpaceOnUse">
<stop stop-color="#0437B9"/>
<stop offset="0.5612" stop-color="#2E68FD"/>
<stop offset="1" stop-color="#5E8BFC"/>
</linearGradient>
<linearGradient id="paint5_linear_3045_225" x1="110.447" y1="132.104" x2="169.166" y2="96.2738" gradientUnits="userSpaceOnUse">
<stop stop-color="#5E8BFC"/>
<stop offset="0.2004" stop-color="#6B94FB"/>
<stop offset="0.4235" stop-color="#2E68FD"/>
<stop offset="1" stop-color="#0437B9"/>
</linearGradient>
<linearGradient id="paint6_linear_3045_225" x1="18.7641" y1="147.849" x2="113.234" y2="90.2029" gradientUnits="userSpaceOnUse">
<stop stop-color="#0437B9"/>
<stop offset="0.3929" stop-color="#2E68FD"/>
<stop offset="1" stop-color="#5E8BFC"/>
</linearGradient>
<linearGradient id="paint7_linear_3045_225" x1="184.614" y1="331.516" x2="184.614" y2="217.239" gradientUnits="userSpaceOnUse">
<stop stop-color="#5E8BFC"/>
<stop offset="0.4388" stop-color="#2E68FD"/>
<stop offset="1" stop-color="#0437B9"/>
</linearGradient>
<linearGradient id="paint8_linear_3045_225" x1="202.608" y1="249.648" x2="202.608" y2="204.244" gradientUnits="userSpaceOnUse">
<stop stop-color="#5E8BFC"/>
<stop offset="0.4388" stop-color="#2E68FD"/>
<stop offset="1" stop-color="#0437B9"/>
</linearGradient>
</defs>
</svg>
